<svg width="150" height="264" viewBox="0 0 150 264" fill="none" xmlns="http://www.w3.org/2000/svg">
<path d="M79.9273 234.5L86.0725 234.884L86.021 220.356H79.3516L79.9273 234.5Z" fill="#DCDCDC"/>
<path d="M63.1136 232.191H68.4369L68.6398 217.855H62.4199L63.1136 232.191Z" fill="#DCDCDC"/>
<path d="M77.0234 228.001H89.555L90.2131 137.189C90.2252 135.519 88.8747 134.158 87.2046 134.158H77.0236L77.0234 228.001Z" fill="#5C5C5C"/>
<path d="M59.5567 229.02L70.9546 229.02L74.6992 134.158L62.5653 134.158C60.9037 134.158 59.5567 135.505 59.5567 137.167L59.5567 229.02Z" fill="#5C5C5C"/>
<path d="M59.7163 147.226L86.3223 147.226L86.3223 134.159L69.0255 134.159C66.5667 134.159 64.3553 135.655 63.4404 137.937L59.7163 147.226Z" fill="#5C5C5C"/>
<path d="M71.8002 241.997H59.4526C59.0548 241.997 58.7324 241.675 58.7324 241.277V239.246C58.7324 236.422 61.0216 234.133 63.8454 234.133H67.4074C70.2312 234.133 72.5203 236.422 72.5203 239.246V241.277C72.5203 241.675 72.1979 241.997 71.8002 241.997Z" fill="#0F0F23"/>
<path d="M76.9928 241.997H89.3404C89.7381 241.997 90.0605 241.675 90.0605 241.277V239.246C90.0605 236.422 87.7714 234.133 84.9476 234.133H81.3856C78.5618 234.133 76.2726 236.422 76.2726 239.246V241.277C76.2726 241.675 76.595 241.997 76.9928 241.997Z" fill="#0F0F23"/>
<path d="M68.9582 231.222C68.9582 231.222 66.1863 229.411 62.7546 230.721C61.8783 231.056 61.8391 233.208 60.7577 233.75C59.3188 234.47 58.9772 235.988 58.8563 239.525C58.7355 243.061 71.4877 239.525 71.4877 239.525L70.901 234.636C70.7312 233.221 68.9582 231.222 68.9582 231.222Z" fill="#0F0F23"/>
<path d="M79.3797 231.222C79.3797 231.222 82.1515 229.411 85.5833 230.721C86.4596 231.056 86.4988 233.208 87.5802 233.75C89.0191 234.47 89.3607 235.988 89.4816 239.525C89.6024 243.061 76.8502 239.525 76.8502 239.525L77.4369 234.636C77.6067 233.221 79.3797 231.222 79.3797 231.222Z" fill="#0F0F23"/>
<path d="M46.9258 151.169V147.476C46.9258 146.516 46.148 145.738 45.1885 145.738H36.3356C35.3761 145.738 34.5983 146.516 34.5983 147.476V151.169" stroke="#2B2B2B" stroke-width="3.32185" stroke-miterlimit="10" stroke-linecap="round"/>
<path d="M36.4996 140.123C36.5329 140.302 33.5802 147.416 35.9861 148.755C37.1357 148.972 39.3733 149.196 40.847 149.168C42.3208 149.141 42.514 149.351 43.8686 149.346C44.6854 149.342 44.6162 147.426 44.4326 145.906C44.3151 144.933 45.0762 144.078 46.0562 144.083L46.9355 144.086C46.9355 144.086 48.1582 142.7 47.6768 140.941C47.1955 139.182 36.4996 140.123 36.4996 140.123Z" fill="#EEB489"/>
<path d="M111.508 139.872C111.475 140.051 114.782 149.522 112.376 150.862C111.227 151.079 110.987 146.433 110.987 146.433C110.987 146.433 111.24 152.499 109.766 152.471C108.292 152.443 108.237 146.475 108.237 146.475C108.237 146.475 108.099 152.654 106.745 152.648C105.39 152.643 104.105 143.653 104.105 143.653C104.105 143.653 103.312 147.982 102.512 148.141C101.712 148.301 99.8494 142.449 100.331 140.69C100.812 138.931 111.508 139.872 111.508 139.872Z" fill="#EEB489"/>
<path d="M72.112 64.5398C71.5774 64.5695 60.4222 79.6244 60.4222 79.6244L52.2805 85.3888L56.4794 136.51H83.4628L87.8008 85.3888C87.8008 85.3888 83.3686 64.8881 72.112 64.5398Z" fill="#2B2B2B"/>
<path d="M86.8983 71.9968C86.8983 71.9968 95.9565 76.7385 105.199 102.888C114.442 129.038 115.143 142.78 115.143 142.78H95.9981L86.0376 95.2237C86.0376 95.2237 83.5742 76.0133 86.8983 71.9968Z" fill="#6DFFC2"/>
<path d="M63.54 71.5637C63.54 71.5637 49.4517 75.3551 39.5783 101.273C32.7244 119.265 31.9974 141.165 31.9974 141.165H51.1419L58.7398 93.6087C58.7398 93.6087 70.0183 77.0297 63.54 71.5637Z" fill="#6DFFC2"/>
<path d="M72.0976 65.2688C72.0976 65.2688 85.3536 74.7174 80.9918 81.2601C76.6299 87.8029 76.9934 182.673 76.9934 182.673H93.5859L93.5859 86.1849C93.5859 86.1849 91.9457 65.7099 72.0976 65.2688Z" fill="#6DFFC2"/>
<path d="M72.1113 64.5398C72.1113 64.5398 63.7512 74.7174 68.113 81.2601C72.4748 87.8029 70.4493 182.673 70.4493 182.673H48.7244L52.4831 87.0759C52.4831 87.0759 48.8482 74.7174 72.1113 64.5398Z" fill="#6DFFC2"/>
<path d="M89.0071 72.8025C89.0071 72.8025 97.0075 83.4284 92.2822 85.9728C87.5569 88.5172 83.0739 89.9711 84.7702 96.8773C86.4665 103.784 88.7685 108.63 85.2548 111.053C81.7411 113.477 80.893 121.837 80.893 121.837" stroke="#2B2B2B" stroke-width="0.472713" stroke-miterlimit="10" stroke-linecap="round"/>
<path d="M58.7491 71.4604C58.7491 71.4604 50.7488 82.0863 55.4741 84.6307C60.1994 87.1751 64.6824 88.6291 62.9861 95.5353C61.2898 102.442 58.9878 107.288 62.5015 109.711C66.0152 112.134 66.8633 120.495 66.8633 120.495" stroke="#2B2B2B" stroke-width="0.472713" stroke-miterlimit="10" stroke-linecap="round"/>
<path d="M15.7564 180.985H64.0859C64.8928 180.985 65.5469 180.331 65.5469 179.524V152.026C65.5469 151.219 64.8928 150.565 64.0859 150.565H15.7564C14.9495 150.565 14.2954 151.219 14.2954 152.026V179.524C14.2954 180.331 14.9495 180.985 15.7564 180.985Z" fill="#2B2B2B"/>
<path d="M64.2109 153.108C64.2109 153.108 45.9836 166.436 39.9196 166.436C33.8556 166.436 16.2871 153.108 16.2871 153.108" stroke="#6DFFC2" stroke-width="0.752143" stroke-miterlimit="10" stroke-linecap="round"/>
<path d="M69.1542 64.3569H76.6445V72.1979C76.6445 74.2663 74.9678 75.943 72.8994 75.943C70.831 75.943 69.1542 74.2663 69.1542 72.1979V64.3569Z" fill="#EEB489"/>
<path d="M76.6445 66.0437L69.8112 66.1138C69.8112 66.1138 75.572 70.6415 76.6445 69.9073V66.0437Z" fill="#2B2B2B"/>
<path d="M73.4082 66.8255H77.3679C81.9098 66.8255 85.5918 63.1435 85.5918 58.6016V48.0303C85.5918 43.4883 81.9098 39.8064 77.3679 39.8064H72.0065C67.4646 39.8064 63.7827 43.4883 63.7827 48.0303V57.2C63.7827 62.516 68.0922 66.8255 73.4082 66.8255Z" fill="#EEB489"/>
<path d="M91.0241 38.8475C91.2051 37.1733 91.494 34.5802 89.7519 33.3952C88.1034 32.2739 85.526 32.8666 84.4813 34.213C84.4813 34.213 82.0357 31.5838 80.0357 30.5588C74.5744 27.7599 64.8836 28.7836 64.4896 32.85C64.2586 35.2335 70.9643 38.0502 71.0324 37.9388C71.0921 37.8409 66.9333 34.016 63.3083 34.94C61.8075 35.3225 60.4393 36.5085 59.946 38.0296C59.1574 40.4617 60.6185 43.2373 62.4904 44.0271C63.6006 44.4955 64.004 43.9073 66.7381 43.7694C69.0484 43.6529 66.9171 45.3177 68.8404 45.6628C71.7037 46.1767 75.8457 45.2431 77.9386 45.6628C80.3985 46.1562 85.5687 47.1931 88.6684 44.3146C90.6299 42.4931 90.9109 39.8942 91.0241 38.8475Z" fill="#2B2B2B"/>
<path d="M73.459 43.6018C73.459 43.6018 68.4472 48.4911 68.7087 51.2654C68.9702 54.0397 64.5365 51.8476 64.5365 51.8476C64.5365 51.8476 64.4791 56.9233 63.8267 56.8742C63.1744 56.8251 59.3032 41.526 62.343 40.9598C65.3829 40.3936 73.459 43.6018 73.459 43.6018Z" fill="#2B2B2B"/>
<path d="M87.1465 51.5273L83.644 50.301" stroke="#2B2B2B" stroke-width="1.42365" stroke-miterlimit="10" stroke-linecap="round"/>
<path d="M72.7455 51.9171L76.6445 50.8796" stroke="#2B2B2B" stroke-width="1.42365" stroke-miterlimit="10" stroke-linecap="round"/>
<path d="M81.4597 51.8469C82.4565 54.3548 82.7877 56.1505 82.9136 57.2083C82.971 57.69 83.0214 58.3181 82.641 58.6623C81.9861 59.2548 80.5561 58.5519 80.4147 58.4805" stroke="#2B2B2B" stroke-width="0.474551" stroke-miterlimit="10" stroke-linecap="round"/>
<path d="M80.8099 60.7481C81.0927 61.8535 79.8803 64.1279 78.3526 63.8835C76.6545 63.6117 76.2596 61.0021 76.1372 60.5238" fill="white"/>
<path d="M75.9509 54.084C75.6272 54.084 75.3647 53.8215 75.3647 53.4978C75.3647 53.1741 75.6272 52.9116 75.9509 52.9116C76.2747 52.9116 76.5371 53.1741 76.5371 53.4978C76.5371 53.8215 76.2747 54.084 75.9509 54.084Z" fill="#2B2B2B"/>
<path d="M85.0056 54.084C84.6819 54.084 84.4194 53.8215 84.4194 53.4978C84.4194 53.1741 84.6819 52.9116 85.0056 52.9116C85.3294 52.9116 85.5918 53.1741 85.5918 53.4978C85.5918 53.8215 85.3294 54.084 85.0056 54.084Z" fill="#2B2B2B"/>
<path d="M63.9533 55.0376C62.637 55.2629 61.3319 54.0555 61.0383 52.3406C60.7446 50.6257 61.5737 49.0529 62.89 48.8275C64.2063 48.6021 65.5115 49.8096 65.8051 51.5245C66.0987 53.2393 65.2696 54.8122 63.9533 55.0376Z" fill="#EEB489"/>
</svg>
