<svg width="30" height="30" viewBox="0 0 30 30" fill="none" xmlns="http://www.w3.org/2000/svg">
<path d="M13.7502 2.5C10.8252 2.5 7.1377 4.65 7.2002 10.2L2.5502 16.225C2.4127 16.4 2.5752 16.625 2.8252 16.625L5.9252 18.1625C6.0877 19.3125 6.6877 22.6625 7.0127 24.3375C7.1252 24.8625 12.2502 24.4625 12.2502 24.4625L13.7502 27.5" fill="#B5CDFB"/>
<path d="M13.7502 2.5C10.8252 2.5 7.1377 4.65 7.2002 10.2L2.5502 16.225C2.4127 16.4 2.5752 16.625 2.8252 16.625L5.9252 18.1625C6.0877 19.3125 6.6877 22.6625 7.0127 24.3375C7.1252 24.8625 12.2502 24.4625 12.2502 24.4625L13.7502 27.5" stroke="#3913B8" stroke-width="1.2" stroke-miterlimit="10" stroke-linecap="round" stroke-linejoin="round"/>
<path fill-rule="evenodd" clip-rule="evenodd" d="M19.6651 2.70224C19.7768 2.39025 19.6144 2.04682 19.3024 1.93516C18.9904 1.8235 18.6469 1.9859 18.5353 2.29789L17.2603 5.86039C17.1486 6.17238 17.311 6.51582 17.623 6.62748C17.935 6.73914 18.2784 6.57674 18.3901 6.26474L19.6651 2.70224ZM27.472 6.40539C27.7372 6.20682 27.7913 5.83079 27.5927 5.5655C27.3942 5.30022 27.0181 5.24614 26.7529 5.44472L22.4779 8.64472C22.2126 8.84329 22.1585 9.21932 22.3571 9.4846C22.5556 9.74989 22.9317 9.80396 23.197 9.60539L27.472 6.40539ZM22.814 14.7936C22.8382 14.4632 23.1258 14.2149 23.4563 14.2392L27.5438 14.5392C27.8743 14.5634 28.1225 14.851 28.0982 15.1815C28.074 15.512 27.7864 15.7602 27.4559 15.7359L23.3684 15.436C23.038 15.4117 22.7897 15.1241 22.814 14.7936ZM14.6501 21.7876C14.3188 21.7876 14.0501 22.0562 14.0501 22.3876C14.0501 22.719 14.3188 22.9876 14.6501 22.9876H17.9376C18.269 22.9876 18.5376 22.719 18.5376 22.3876C18.5376 22.0562 18.269 21.7876 17.9376 21.7876H14.6501ZM14.0501 19.1625C14.0501 18.8311 14.3188 18.5625 14.6501 18.5625H15.0339C13.3773 17.2592 10.873 14.0832 12.7878 11.5626C14.5878 9.20009 18.0003 9.20009 19.8003 11.5626C21.7132 14.0808 19.225 17.2624 17.5628 18.5625H17.9376C18.269 18.5625 18.5376 18.8311 18.5376 19.1625C18.5376 19.4939 18.269 19.7625 17.9376 19.7625H14.6501C14.3188 19.7625 14.0501 19.4939 14.0501 19.1625ZM16.9003 18.5625V15.1386C17.2456 14.922 17.4752 14.5378 17.4752 14.1001C17.4752 13.4235 16.9268 12.8751 16.2502 12.8751C15.5737 12.8751 15.0252 13.4235 15.0252 14.1001C15.0252 14.5789 15.2999 14.9935 15.7003 15.195V18.5625H16.9003ZM16.2252 14.1001C16.2252 14.0863 16.2364 14.0751 16.2502 14.0751C16.264 14.0751 16.2752 14.0863 16.2752 14.1001C16.2752 14.1139 16.264 14.1251 16.2502 14.1251C16.2364 14.1251 16.2252 14.1139 16.2252 14.1001Z" fill="#3913B8"/>
</svg>
