<svg width="687" height="1346" viewBox="0 0 687 1346" fill="none" xmlns="http://www.w3.org/2000/svg">
<path fill-rule="evenodd" clip-rule="evenodd" d="M1360.43 423.204C1518.4 471.435 1610.92 597.518 1733.95 689.886C1863.88 787.448 2058.19 872.456 2105.9 982.917C2153.69 1093.59 2037.37 1162.94 1972.05 1241.22C1916.75 1307.49 1826.26 1348.73 1753.55 1405.2C1661.65 1476.57 1659.2 1631.32 1486.66 1618.17C1311.81 1604.84 1172.89 1437.67 1008.51 1348.42C885.627 1281.7 756.853 1230.6 639.982 1158.48C500.071 1072.14 328.356 992.21 256.739 884.501C183.866 774.906 227.518 677.335 259.052 585.582C291.021 492.568 305.964 376.362 440.789 348.993C577.178 321.306 776.148 434.2 939.743 447.402C1093.67 459.823 1201.19 374.584 1360.43 423.204Z" stroke="url(#paint0_linear_141_8811)" stroke-width="9.74738"/>
<path fill-rule="evenodd" clip-rule="evenodd" d="M1404.94 441.78C1562.91 490.011 1655.43 616.094 1778.45 708.462C1908.39 806.024 2102.7 891.032 2150.4 1001.49C2198.2 1112.17 2081.87 1181.51 2016.55 1259.8C1961.26 1326.07 1870.77 1367.31 1798.05 1423.78C1706.16 1495.14 1703.71 1649.89 1531.17 1636.74C1356.32 1623.42 1217.4 1456.24 1053.02 1367C930.132 1300.28 801.359 1249.17 684.488 1177.05C544.577 1090.71 372.862 1010.79 301.245 903.077C228.372 793.482 272.023 695.911 303.558 604.158C335.526 511.144 350.469 394.938 485.295 367.569C621.684 339.882 820.653 452.776 984.249 465.978C1138.17 478.399 1245.69 393.159 1404.94 441.78Z" stroke="url(#paint1_linear_141_8811)" stroke-width="8.77264"/>
<path fill-rule="evenodd" clip-rule="evenodd" d="M1507.83 432.847C1664.39 485.475 1753.35 614.096 1873.74 709.866C2000.9 811.022 2192.76 901.429 2237.35 1013.18C2282.04 1125.15 2163.82 1191.21 2096.33 1267.64C2039.21 1332.34 1947.6 1371.04 1873.34 1425.45C1779.48 1494.22 1772.71 1648.84 1600.6 1630.87C1426.19 1612.66 1292 1441.67 1130.18 1347.86C1009.21 1277.74 881.913 1223.05 767.103 1147.69C629.661 1057.48 460.248 972.781 391.669 863.112C321.888 751.522 368.25 655.21 402.337 564.374C436.893 472.29 455.079 356.548 590.617 332.958C727.726 309.094 923.462 427.507 1086.62 445.276C1240.14 461.995 1350 379.795 1507.83 432.847Z" stroke="url(#paint2_linear_141_8811)" stroke-width="7.79791"/>
<defs>
<linearGradient id="paint0_linear_141_8811" x1="-477.268" y1="-210.608" x2="553.112" y2="2063.05" gradientUnits="userSpaceOnUse">
<stop stop-color="#20FB6B" stop-opacity="0.71"/>
<stop offset="0.963151" stop-color="#522272"/>
</linearGradient>
<linearGradient id="paint1_linear_141_8811" x1="-432.762" y1="-192.033" x2="597.618" y2="2081.63" gradientUnits="userSpaceOnUse">
<stop stop-color="#20FB6B" stop-opacity="0.71"/>
<stop offset="0.963151" stop-color="#522272"/>
</linearGradient>
<linearGradient id="paint2_linear_141_8811" x1="-311.439" y1="-252.088" x2="654.982" y2="2049.49" gradientUnits="userSpaceOnUse">
<stop stop-color="#20FB6B" stop-opacity="0.71"/>
<stop offset="0.963151" stop-color="#522272"/>
</linearGradient>
</defs>
</svg>
