<svg width="474" height="318" viewBox="0 0 474 318" fill="none" xmlns="http://www.w3.org/2000/svg">
<g clip-path="url(#clip0_147_8857)">
<path opacity="0.1" d="M157.585 317.821C180.669 317.821 199.382 314.974 199.382 311.463C199.382 307.952 180.669 305.105 157.585 305.105C134.502 305.105 115.789 307.952 115.789 311.463C115.789 314.974 134.502 317.821 157.585 317.821Z" fill="#EFEEF7"/>
<path opacity="0.1" d="M384.784 318C413.589 318 436.939 315.153 436.939 311.642C436.939 308.13 413.589 305.284 384.784 305.284C355.98 305.284 332.629 308.13 332.629 311.642C332.629 315.153 355.98 318 384.784 318Z" fill="#EFEEF7"/>
<path opacity="0.1" d="M5.93517 137.399H49.4687V193.598H9.12222C9.01499 194.174 8.91204 194.755 8.80052 195.336H49.4687V240.659C49.3958 240.639 49.3314 240.615 49.2628 240.59C48.1132 240.16 46.9722 239.705 45.8312 239.217L45.102 238.904C43.9582 238.392 42.8143 237.851 41.6705 237.279C41.2716 237.08 40.8726 236.873 40.478 236.662C34.1279 233.293 28.3591 229.024 23.3717 224.002C23.2259 223.868 23.0886 223.726 22.9428 223.596C22.2479 222.881 21.5659 222.158 20.9053 221.419L20.1761 220.606C19.3954 219.7 18.6405 218.77 17.907 217.827C17.7998 217.689 17.6968 217.551 17.5853 217.421C14.6022 213.503 12.1253 209.262 10.2075 204.786C10.1474 204.652 10.0959 204.506 10.0402 204.38C9.45108 202.944 8.9292 201.495 8.47452 200.033C8.2772 199.419 8.08847 198.814 7.92547 198.176C7.86542 197.989 7.81394 197.807 7.76676 197.624C5.33036 188.617 5.04297 179.261 5.04297 169.969C5.04297 168.884 5.04297 167.796 5.04297 166.719C5.04297 162.961 5.09015 159.179 5.15878 155.401C5.15878 154.421 5.20168 153.446 5.22312 152.463C5.28318 149.969 5.36897 147.474 5.48049 144.98C5.50623 144.285 5.54054 143.594 5.57915 142.904C5.57915 142.506 5.6006 142.108 5.64349 141.709C5.74644 140.263 5.83223 138.829 5.93517 137.399Z" fill="#EFEEF7"/>
<path opacity="0.1" d="M49.4711 74.826H25.5918C29.4735 69.0716 33.7147 63.542 38.2928 58.2667C41.8402 54.139 45.5849 50.117 49.4711 46.2412V74.826Z" fill="#EFEEF7"/>
<path opacity="0.1" d="M49.4705 76.5647V135.66H6.07422C6.07422 135.489 6.10424 135.315 6.11711 135.144C6.15572 134.677 6.19432 134.21 6.23722 133.747C6.2844 133.202 6.33587 132.654 6.39164 132.121C6.4474 131.589 6.50745 130.939 6.57179 130.35C6.63614 129.761 6.69619 129.164 6.76911 128.575C6.84203 127.986 6.90637 127.397 6.98358 126.812C7.06079 126.227 7.12942 125.633 7.21092 125.048C7.27526 124.561 7.34389 124.077 7.41252 123.59C7.51118 122.903 7.61413 122.213 7.72565 121.53C7.72565 121.429 7.75568 121.323 7.77284 121.225C8.55574 116.229 9.6225 111.276 10.9685 106.389C12.3774 101.262 14.1765 96.2378 16.3517 91.3568C18.6636 86.2508 21.3704 81.3134 24.4502 76.585L49.4705 76.5647Z" fill="#EFEEF7"/>
<path opacity="0.1" d="M59.8633 137.395V193.597H152.845V137.395H59.8633ZM59.8633 195.332V243.596C60.3952 243.702 60.9228 243.804 61.4461 243.889C62.1581 244.019 62.8659 244.137 63.5908 244.238C63.7281 244.259 63.8696 244.279 64.0197 244.291C64.3028 244.336 64.5945 244.372 64.8776 244.409C65.594 244.502 66.306 244.58 67.0224 244.641C67.3612 244.673 67.7044 244.702 68.0475 244.726L68.8754 244.787C69.3258 244.819 69.7719 244.844 70.2137 244.856C70.4882 244.856 70.7627 244.88 71.0458 244.888C71.2603 244.888 71.4748 244.888 71.6978 244.888C71.9209 244.888 72.2383 244.888 72.5085 244.888C72.8774 244.888 73.2463 244.888 73.6109 244.888H74.1042C74.4731 244.888 74.842 244.888 75.2066 244.856H75.2323C75.4854 244.856 75.7428 244.856 76.0001 244.823C76.0716 244.827 76.1432 244.827 76.2146 244.823C76.4291 244.823 76.6436 244.823 76.8494 244.795H76.9996L78.4365 244.689C78.9084 244.649 79.3845 244.596 79.8649 244.547L80.8429 244.437C84.8217 243.909 88.7563 243.117 92.6174 242.065C101.291 239.774 109.775 236.568 118.444 234.22C129.652 231.193 142.036 229.706 152.867 233.407V195.332H59.8633ZM152.845 74.8258V0.00395845C142.665 -0.100502 132.513 1.02721 122.635 3.35971C99.0902 8.96211 77.9647 21.1135 59.8633 36.6328V74.8218H64.5302V76.5565H59.8633V135.66H152.845V76.5606H83.6911V74.8258H152.845ZM272.276 49.5521C266.451 49.3571 260.66 47.6101 255.423 44.9125C245.407 39.7529 237.407 31.7861 228.468 25.0624C209.895 11.0584 186.861 2.60812 163.23 0.51179V74.8258H295.967L296.297 74.4967L272.276 49.5521ZM284.368 47.5207L297.189 60.8462V44.0269C292.896 44.5306 289.134 45.7291 284.385 47.5045L284.368 47.5207ZM297.189 255.581V195.332H269.87C269.797 195.076 269.724 194.816 269.638 194.556C269.72 194.816 269.788 195.076 269.866 195.332H163.247V238.904C164.26 239.615 165.259 240.363 166.25 241.122C167.318 241.935 168.373 242.792 169.433 243.633L170.501 244.47C171.011 244.876 171.526 245.282 172.045 245.664C173.074 246.455 174.114 247.235 175.163 248.004C175.682 248.411 176.214 248.776 176.742 249.158C185.118 255.224 193.954 260.697 203.178 265.535C205.245 266.618 207.331 267.676 209.436 268.708C210.839 269.386 212.25 270.061 213.665 270.715C215.793 271.698 217.938 272.646 220.1 273.559C240.031 282.033 261.107 287.847 282.725 290.837C287.527 291.509 292.346 292.037 297.185 292.421V255.577H297.614L297.189 255.581ZM163.247 76.5606V135.66H297.206V76.5606H163.247ZM163.247 137.395V193.597H297.206V137.395H163.247ZM307.604 43.9537V62.7151L323.968 45.7088C318.546 44.88 313.092 44.2882 307.604 43.9334V43.9537ZM307.604 137.415V193.597H437.896V137.395L307.604 137.415ZM437.42 260.042L437.879 195.332H307.604V293.067C315.996 293.401 324.402 293.306 332.783 292.783H332.929C336.932 292.545 340.917 292.198 344.884 291.743H344.974C366.134 289.411 386.824 284.182 406.398 276.22L437.42 260.042ZM463.019 146.649C462.53 145.557 462.019 144.472 461.5 143.399C460.531 141.368 459.506 139.394 458.451 137.419H448.285V193.597H473.987C473.974 177.688 469.723 161.437 463.032 146.629L463.019 146.649ZM448.285 195.352V251.011C455.525 244.437 461.642 236.917 466.047 228.321C471.345 217.969 473.768 206.76 473.966 195.344L448.285 195.352ZM448.285 121.038V135.664H457.498C454.711 130.629 451.64 125.74 448.298 121.018L448.285 121.038ZM359.922 54.9798C359.245 54.736 358.567 54.4882 357.885 54.2485C350.692 51.7326 343.341 49.6404 335.876 47.9839L310.834 74.0133L310.354 74.4967L310.675 74.8299H399.801C387.388 66.7373 374.006 60.0672 359.935 54.9594L359.922 54.9798ZM402.413 76.5809H309.431L307.604 78.1653V135.66H323.621H323.647H437.913V107.81C427.576 95.9702 415.646 85.4641 402.426 76.5606L402.413 76.5809Z" fill="#EFEEF7"/>
<path opacity="0.1" d="M49.4705 106.372V135.66H6.07422C6.07422 135.489 6.10424 135.315 6.11711 135.144C6.15572 134.677 6.19432 134.21 6.23722 133.746C6.2844 133.202 6.33587 132.654 6.39164 132.121C6.4474 131.589 6.50745 130.939 6.57179 130.35C6.63614 129.761 6.69619 129.164 6.76911 128.575C6.84203 127.986 6.90637 127.397 6.98358 126.812C7.06079 126.226 7.12942 125.633 7.21092 125.048C7.27526 124.561 7.34389 124.077 7.41252 123.59C7.51118 122.903 7.61413 122.213 7.72565 121.53C7.72565 121.429 7.75568 121.323 7.77284 121.225C8.55574 116.229 9.6225 111.276 10.9685 106.389L49.4705 106.372Z" fill="#EFEEF7"/>
<path opacity="0.1" d="M5.93517 137.399H49.4687V193.598H9.12222C9.01499 194.174 8.91204 194.755 8.80052 195.336H49.4687V240.659C49.3958 240.639 49.3314 240.615 49.2628 240.59C48.1132 240.16 46.9722 239.705 45.8312 239.217L45.102 238.904C43.9582 238.392 42.8143 237.851 41.6705 237.279C41.2716 237.08 40.8726 236.873 40.478 236.662C34.1279 233.293 28.3591 229.024 23.3717 224.002C23.2259 223.868 23.0886 223.726 22.9428 223.596C22.2479 222.881 21.5659 222.158 20.9053 221.419L20.1761 220.606C19.3954 219.7 18.6405 218.77 17.907 217.827C17.7998 217.689 17.6968 217.551 17.5853 217.421C14.6022 213.503 12.1253 209.262 10.2075 204.786C10.1474 204.652 10.0959 204.506 10.0402 204.38C9.45108 202.944 8.9292 201.495 8.47452 200.033C8.2772 199.419 8.08847 198.814 7.92547 198.176C7.86542 197.989 7.81394 197.807 7.76676 197.624C5.33036 188.617 5.04297 179.261 5.04297 169.969C5.04297 168.884 5.04297 167.796 5.04297 166.719C5.04297 162.961 5.09015 159.179 5.15878 155.401C5.15878 154.421 5.20168 153.446 5.22312 152.463C5.28318 149.969 5.36897 147.474 5.48049 144.98C5.50623 144.285 5.54054 143.594 5.57915 142.904C5.57915 142.506 5.6006 142.108 5.64349 141.709C5.74644 140.263 5.83223 138.829 5.93517 137.399Z" fill="#EFEEF7"/>
<path opacity="0.1" d="M92.596 85.0233V135.66H59.8633V85.0233H64.5302V67.8789H83.6868V85.0233H92.596Z" fill="#EFEEF7"/>
<path opacity="0.1" d="M92.5956 137.395H59.8672V193.594H92.5956V137.395Z" fill="#EFEEF7"/>
<path opacity="0.1" d="M59.8633 195.336H92.596V242.057C88.7348 243.108 84.8002 243.899 80.8215 244.425L79.8435 244.539C79.3631 244.592 78.8869 244.637 78.4151 244.681C77.9433 244.726 77.4543 244.759 76.9781 244.787H76.828C76.6221 244.787 76.3991 244.811 76.1975 244.815H75.9787C75.7213 244.815 75.464 244.84 75.2066 244.848C74.842 244.868 74.4774 244.872 74.1042 244.876C73.9455 244.876 73.7954 244.876 73.6367 244.876C73.2678 244.876 72.9032 244.876 72.5343 244.876H71.7236C71.5048 244.876 71.2946 244.876 71.0673 244.876L70.2394 244.848C69.8105 244.848 69.3472 244.803 68.9011 244.775L68.0776 244.718L67.0524 244.629C66.3318 244.568 65.6154 244.49 64.9077 244.397L64.0498 244.283L63.6208 244.226C62.9045 244.121 62.1967 244.007 61.4761 243.877C60.9485 243.792 60.4252 243.686 59.8933 243.584L59.8633 195.336Z" fill="#EFEEF7"/>
<path opacity="0.1" d="M297.208 79.043H270.219V135.656H297.208V79.043Z" fill="#EFEEF7"/>
<path opacity="0.1" d="M297.211 137.395V193.598H163.248V169.356H234.603V183.656H270.218V137.395H297.211Z" fill="#EFEEF7"/>
<path opacity="0.1" d="M297.636 255.593H297.207V292.462C292.374 292.075 287.556 291.548 282.752 290.881C261.123 287.882 240.038 282.055 220.1 273.566C214.344 271.113 208.705 268.434 203.183 265.53C193.959 260.691 185.122 255.217 176.743 249.154C174.638 247.626 172.56 246.064 170.51 244.466C169.09 243.357 167.679 242.219 166.251 241.114C165.26 240.354 164.26 239.607 163.248 238.892V195.336H269.862C269.789 195.076 269.716 194.816 269.639 194.56C269.72 194.816 269.798 195.076 269.871 195.336H297.207V255.569C297.353 255.573 297.495 255.585 297.636 255.593Z" fill="#EFEEF7"/>
<path opacity="0.1" d="M367.596 74.826H350.01V69.6502H357.894V54.2324C358.577 54.4681 359.258 54.7105 359.936 54.9596V69.6502H367.596V74.826Z" fill="#EFEEF7"/>
<path opacity="0.1" d="M409.967 135.66H323.629C323.629 135.66 323.629 135.66 323.659 135.68L323.62 135.66H307.604V79.047H312.142V120.892H332.881V96.1101H350.013V76.5647H367.6V96.1264H384.732V120.909H409.967V135.66Z" fill="#EFEEF7"/>
<path opacity="0.1" d="M307.604 137.395V193.598H409.967V137.395H307.604ZM437.754 259.754L437.895 215.268H409.967V195.361H307.604V293.068C315.996 293.402 324.401 293.307 332.783 292.783H332.928C336.932 292.545 340.917 292.198 344.883 291.743H344.973C366.133 289.411 386.824 284.182 406.398 276.22" fill="#EFEEF7"/>
<path opacity="0.1" d="M450.102 195.336H473.982C473.771 206.748 471.352 217.957 466.059 228.309C461.654 236.91 455.533 244.43 448.301 250.999V215.247H450.102V195.336Z" fill="#EFEEF7"/>
<path opacity="0.1" d="M473.996 193.597H450.104V146.629H463.032C469.723 161.438 473.974 177.688 473.996 193.597Z" fill="#EFEEF7"/>
<path opacity="0.1" d="M297.212 94.7815H282.752V112.531H297.212V94.7815Z" fill="#EFEEF7"/>
<path opacity="0.1" d="M297.212 131.573H282.752V135.66H297.212V131.573Z" fill="#EFEEF7"/>
<path opacity="0.1" d="M297.212 137.395H282.752V149.319H297.212V137.395Z" fill="#EFEEF7"/>
<path opacity="0.1" d="M297.212 168.364H282.752V186.114H297.212V168.364Z" fill="#EFEEF7"/>
<path opacity="0.1" d="M297.212 205.156H282.752V222.905H297.212V205.156Z" fill="#EFEEF7"/>
<path opacity="0.1" d="M297.207 255.569C297.353 255.569 297.495 255.569 297.636 255.594H297.207V259.717H282.752V241.947H297.207V255.569Z" fill="#EFEEF7"/>
<path opacity="0.1" d="M297.207 278.73V292.442C292.375 292.055 287.556 291.528 282.752 290.862V278.73H297.207Z" fill="#EFEEF7"/>
<path opacity="0.1" d="M225.218 192.293H163.248V193.598H225.218V192.293Z" fill="#EFEEF7"/>
<path opacity="0.1" d="M225.218 195.332H163.248V200.329H225.218V195.332Z" fill="#EFEEF7"/>
<path opacity="0.1" d="M225.218 216.71H163.248V224.746H225.218V216.71Z" fill="#EFEEF7"/>
<path opacity="0.1" d="M225.211 241.126V249.162H176.74C174.636 247.64 172.557 246.077 170.504 244.474C169.084 243.365 167.677 242.227 166.244 241.126H225.211Z" fill="#EFEEF7"/>
<path opacity="0.1" d="M225.212 265.539V273.567H220.095C214.344 271.11 208.706 268.43 203.182 265.527L225.212 265.539Z" fill="#EFEEF7"/>
<path opacity="0.1" d="M344.986 142.843H332.787V154.397H344.986V142.843Z" fill="#EFEEF7"/>
<path opacity="0.1" d="M80.8515 89.0088H68.6523V100.563H80.8515V89.0088Z" fill="#EFEEF7"/>
<path opacity="0.1" d="M80.8515 115.847H68.6523V127.401H80.8515V115.847Z" fill="#EFEEF7"/>
<path opacity="0.1" d="M80.8515 142.684H68.6523V154.239H80.8515V142.684Z" fill="#EFEEF7"/>
<path opacity="0.1" d="M80.8515 169.518H68.6523V181.072H80.8515V169.518Z" fill="#EFEEF7"/>
<path opacity="0.1" d="M80.8515 196.356H68.6523V207.91H80.8515V196.356Z" fill="#EFEEF7"/>
<path opacity="0.1" d="M80.8515 223.194H68.6523V234.748H80.8515V223.194Z" fill="#EFEEF7"/>
<path opacity="0.1" d="M391.557 142.843H379.357V154.397H391.557V142.843Z" fill="#EFEEF7"/>
<path opacity="0.1" d="M344.986 171.342H332.787V182.896H344.986V171.342Z" fill="#EFEEF7"/>
<path opacity="0.1" d="M391.557 171.342H379.357V182.896H391.557V171.342Z" fill="#EFEEF7"/>
<path opacity="0.1" d="M344.986 199.838H332.787V211.392H344.986V199.838Z" fill="#EFEEF7"/>
<path opacity="0.1" d="M391.557 199.838H379.357V211.392H391.557V199.838Z" fill="#EFEEF7"/>
<path opacity="0.1" d="M344.986 228.337H332.787V239.892H344.986V228.337Z" fill="#EFEEF7"/>
<path opacity="0.1" d="M391.557 228.337H379.357V239.892H391.557V228.337Z" fill="#EFEEF7"/>
<path opacity="0.1" d="M344.986 256.837H332.787V268.391H344.986V256.837Z" fill="#EFEEF7"/>
<path opacity="0.1" d="M391.557 256.837H379.357V268.391H391.557V256.837Z" fill="#EFEEF7"/>
<path opacity="0.1" d="M332.787 292.783V285.332H344.982V291.723L332.787 292.783Z" fill="#EFEEF7"/>
<path opacity="0.1" d="M7.71875 121.217V127.827H49.4678V121.217H7.71875ZM11.8795 127.413H8.47369V121.624H11.9052L11.8795 127.413ZM16.036 127.413H12.6044V121.624H16.036V127.413ZM20.1839 127.413H16.7523V121.624H20.1839V127.413ZM24.3403 127.413H20.9131V121.624H24.3446L24.3403 127.413ZM28.4925 127.413H25.0609V121.624H28.4925V127.413ZM32.649 127.413H29.2174V121.624H32.649V127.413ZM36.8054 127.413H33.3739V121.624H36.8054V127.413ZM40.9576 127.413H37.526V121.624H40.9576V127.413ZM45.1098 127.413H41.6782V121.624H45.1098V127.413ZM49.2619 127.413H45.8304V121.624H49.2619V127.413Z" fill="#EFEEF7"/>
<path opacity="0.1" d="M7.71875 140.45V147.06H49.4678V140.45H7.71875ZM11.8795 146.641H8.47369V140.868H11.9052L11.8795 146.641ZM16.036 146.641H12.6044V140.868H16.036V146.641ZM20.1839 146.641H16.7523V140.868H20.1839V146.641ZM24.3403 146.641H20.9131V140.868H24.3446L24.3403 146.641ZM28.4925 146.641H25.0609V140.868H28.4925V146.641ZM32.649 146.641H29.2174V140.868H32.649V146.641ZM36.8054 146.641H33.3739V140.868H36.8054V146.641ZM40.9576 146.641H37.526V140.868H40.9576V146.641ZM45.1098 146.641H41.6782V140.868H45.1098V146.641ZM49.2619 146.641H45.8304V140.868H49.2619V146.641Z" fill="#EFEEF7"/>
<path opacity="0.1" d="M7.71875 159.691V166.313H49.4678V159.691H7.71875ZM11.8795 165.882H8.47369V160.105H11.9052L11.8795 165.882ZM16.036 165.882H12.6044V160.105H16.036V165.882ZM20.1839 165.882H16.7523V160.105H20.1839V165.882ZM24.3403 165.882H20.9131V160.105H24.3446L24.3403 165.882ZM28.4925 165.882H25.0609V160.105H28.4925V165.882ZM32.649 165.882H29.2174V160.105H32.649V165.882ZM36.8054 165.882H33.3739V160.105H36.8054V165.882ZM40.9576 165.882H37.526V160.105H40.9576V165.882ZM45.1098 165.882H41.6782V160.105H45.1098V165.882ZM49.2619 165.882H45.8304V160.105H49.2619V165.882Z" fill="#EFEEF7"/>
<path opacity="0.1" d="M7.71875 178.931V185.533H49.4678V178.931H7.71875ZM11.8795 185.123H8.47369V179.341H11.9052L11.8795 185.123ZM16.036 185.123H12.6044V179.341H16.036V185.123ZM20.1839 185.123H16.7523V179.341H20.1839V185.123ZM24.3403 185.123H20.9131V179.341H24.3446L24.3403 185.123ZM28.4925 185.123H25.0609V179.341H28.4925V185.123ZM32.649 185.123H29.2174V179.341H32.649V185.123ZM36.8054 185.123H33.3739V179.341H36.8054V185.123ZM40.9576 185.123H37.526V179.341H40.9576V185.123ZM45.1098 185.123H41.6782V179.341H45.1098V185.123ZM49.2619 185.123H45.8304V179.341H49.2619V185.123Z" fill="#EFEEF7"/>
<path opacity="0.1" d="M7.90234 198.168C8.06963 198.789 8.25836 199.411 8.45568 200.024V198.582H11.8872V204.359H10.0513C10.1071 204.493 10.1629 204.64 10.2186 204.766H49.4713V198.168H7.90234ZM16.0523 204.359H12.6207V198.582H16.0523V204.359ZM20.2002 204.359H16.7686V198.582H20.2002V204.359ZM24.3566 204.359H20.9165V198.582H24.348L24.3566 204.359ZM28.5088 204.359H25.0772V198.582H28.5088V204.359ZM32.6653 204.359H29.2337V198.582H32.6653V204.359ZM36.8217 204.359H33.3902V198.582H36.8217V204.359ZM40.9739 204.359H37.5424V198.582H40.9739V204.359ZM45.1261 204.359H41.6945V198.582H45.1261V204.359ZM49.2783 204.359H45.8467V198.582H49.2783V204.359Z" fill="#EFEEF7"/>
<path opacity="0.1" d="M17.5938 217.409C17.701 217.539 17.8039 217.685 17.9155 217.815H20.1846V220.59C20.4291 220.866 20.6693 221.143 20.9181 221.403V217.799H24.3496V223.596H22.9598C23.0971 223.73 23.2301 223.873 23.3888 224.003H49.4814V217.409H17.5938ZM28.4932 223.596H25.0617V217.823H28.4932V223.596ZM32.6497 223.596H29.2181V217.823H32.6497V223.596ZM36.8061 223.596H33.3746V217.823H36.8061V223.596ZM40.9583 223.596H37.5268V217.823H40.9583V223.596ZM45.1105 223.596H41.6789V217.823H45.1105V223.596ZM49.2627 223.596H45.8311V217.823H49.2627V223.596Z" fill="#EFEEF7"/>
<path opacity="0.1" d="M40.4961 236.646C40.8864 236.857 41.2853 237.052 41.6886 237.263V237.06H45.1201V238.888L45.8493 239.209V237.06H49.2809V240.574C49.3467 240.605 49.4157 240.63 49.4868 240.647V236.646H40.4961Z" fill="#EFEEF7"/>
<path opacity="0.1" d="M323.631 135.66H323.657H323.631ZM297.208 255.565H297.637H297.208ZM269.64 194.556C269.721 194.816 269.79 195.076 269.867 195.332C269.798 195.076 269.725 194.816 269.64 194.556ZM323.631 135.648H323.657H323.631ZM64.5488 74.8137V76.5485H83.7097V74.8137H64.5488ZM297.208 255.565H297.637H297.208ZM269.64 194.556C269.721 194.816 269.79 195.076 269.867 195.332C269.798 195.076 269.725 194.816 269.64 194.556ZM323.631 135.648H323.657H323.631ZM297.208 255.553H297.637H297.208ZM269.64 194.556C269.721 194.816 269.79 195.076 269.867 195.332C269.798 195.076 269.725 194.816 269.64 194.556Z" fill="#EFEEF7"/>
<path d="M198 154.247C198 154.247 196.31 154.023 196.31 151.691C196.31 149.359 195.101 145.004 195.101 145.004C195.101 144.984 194.054 137.419 192.609 136.217C191.163 135.014 189.306 127.953 189.306 127.953C189.306 127.953 188.988 124.122 188.341 123.297C187.693 122.473 186.818 120.454 185.527 117.573C184.236 114.693 178.852 112.698 178.852 112.698C178.852 112.698 169.12 107.352 166.362 105.609C166.111 105.465 165.877 105.298 165.662 105.109C165.182 104.512 163.089 104.5 163.089 104.5C162.87 103.191 162.66 101.688 162.591 100.327C162.591 100.181 162.591 100.035 162.57 99.8884C165.645 98.1666 167.962 95.4518 169.094 92.2425C169.145 92.0881 169.188 91.9256 169.235 91.7712C169.42 91.7137 169.589 91.6205 169.733 91.4973C169.877 91.3742 169.993 91.224 170.072 91.0562C170.321 90.5321 170.325 89.9187 170.634 89.4312C170.994 88.8543 171.68 88.5455 172.221 88.1108C173.585 87.0139 173.937 85.1654 173.872 83.4834C173.829 82.1224 173.598 80.7493 173.688 79.3964L173.714 79.0551C173.739 78.852 173.769 78.6489 173.808 78.4539C174.018 77.4463 174.477 76.4957 174.735 75.4963C174.992 74.4969 175.018 73.3715 174.417 72.5102C173.538 71.2467 171.706 70.9948 170.098 70.8648C168.275 70.7186 166.645 70.9095 165.478 69.4754C164.932 68.7259 164.318 68.023 163.642 67.375C163.402 67.1638 161.068 65.815 161.068 65.7256C158.791 64.7265 156.209 64.539 153.798 65.1974C152.588 65.5306 151.447 66.075 150.22 66.3472C147.574 66.9403 144.528 66.2984 142.281 67.7325C141.028 68.5451 140.277 69.837 139.574 71.0964C139.002 72.1337 138.422 73.1697 137.832 74.2043C136.885 75.9066 135.919 77.6373 135.52 79.5223C135.437 79.9325 135.385 80.3481 135.366 80.7655V80.7858C135.366 80.9362 135.366 81.0865 135.366 81.2368V81.4277C135.366 81.5699 135.366 81.7081 135.392 81.834C135.418 81.9599 135.413 82.0006 135.426 82.0859C135.439 82.1712 135.46 82.3621 135.486 82.4921C135.512 82.6221 135.563 82.8497 135.615 83.0284C135.636 83.1056 135.666 83.1787 135.692 83.2519C135.735 83.39 135.786 83.5241 135.842 83.6581C135.872 83.7272 135.902 83.8003 135.937 83.8694C136.001 84.0116 136.078 84.1497 136.155 84.2757C136.19 84.3325 136.215 84.3853 136.25 84.4382C136.369 84.6271 136.501 84.8089 136.644 84.9826C137.562 86.0673 138.913 86.7579 139.913 87.7736C139.913 87.8142 139.913 87.8548 139.913 87.8914C139.913 88.0052 139.913 88.1149 139.913 88.2286C139.966 90.4937 140.602 92.7123 141.767 94.6913C142.932 96.6703 144.589 98.3498 146.596 99.5837C146.596 99.7381 146.617 99.8965 146.626 100.051C146.709 101.257 146.694 102.467 146.579 103.671C146.404 103.476 146.185 103.321 145.939 103.217C145.692 103.113 145.424 103.062 145.155 103.069C144.97 103.061 144.786 103.076 144.605 103.114L144.567 103.086V103.122C143.623 103.342 142.461 104.272 141.35 106.917C141.35 106.917 137.97 110.524 135.396 110.374C132.822 110.224 126.307 114.128 126.307 114.128C126.307 114.128 119.95 118.036 118.586 122.018C117.823 124.275 116.909 126.485 115.849 128.632L107.991 143.968L106.541 156.136C106.541 156.136 107.343 161.547 107.184 162.372C107.026 163.197 110.483 170.635 110.483 170.635C110.483 170.635 121.906 189.645 126.573 190.62L126.907 190.396C127.107 190.495 127.319 190.57 127.538 190.62L128.499 189.978C128.556 190.693 128.532 191.412 128.426 192.123C127.782 194 128.666 206.249 129.79 208.65C130.914 211.051 130.515 242.532 130.515 242.532L130.356 245.311C130.356 245.311 130.356 245.4 130.395 245.555L130.356 246.213L130.472 246.27C130.592 247.151 130.553 248.046 130.356 248.915C129.953 250.133 129.79 253.579 129.79 253.579C129.79 253.579 126.577 273.031 128.1 276.939C129.622 280.847 130.918 285.129 130.918 285.129C130.918 285.129 132.526 290.004 130.995 290.837C129.464 291.67 125.11 293.068 126.006 295.099C126.821 296.976 129.914 302.005 130.373 302.741L130.335 303.127L129.704 309.598C129.806 310.453 130.051 311.287 130.429 312.069C131.119 313.478 132.462 314.941 135.014 314.782C135.443 314.754 135.941 314.705 136.421 314.644C141.092 314.051 146.845 312.077 146.845 312.077C146.546 311.897 146.272 311.683 146.03 311.439C145.8 311.228 145.618 310.975 145.495 310.696C145.372 310.417 145.31 310.117 145.313 309.814C145.382 308.636 143.053 303.021 142.474 301.64C142.384 301.441 142.336 301.327 142.336 301.327C142.336 301.327 147.647 296.07 146.763 291.41C146.763 291.41 140.887 288.16 142.821 286.376C144.756 284.593 148.213 279.47 148.213 279.47C148.213 279.47 148.372 260.314 148.213 257.454C148.047 255.469 148.147 253.472 148.509 251.511C148.573 251.214 148.65 250.926 148.732 250.641C151.407 251.02 154.108 251.214 156.813 251.222C157.8 251.222 158.804 251.222 159.816 251.165C159.816 251.436 159.829 251.729 159.854 252.043C160.077 256.788 160.494 265.108 160.832 268.2C161.313 272.632 163.968 284.577 163.968 284.577C163.968 284.577 158.902 287.656 164.852 295.245C164.852 295.245 164.852 297.996 164.457 298.394C164.036 299.695 163.696 301.019 163.44 302.359C163.192 303.789 163.089 305.235 163.492 305.987C164.457 307.782 170.248 307.636 170.248 307.636L170.389 307.612C171.483 307.505 172.587 307.604 173.64 307.905C174.692 308.206 175.671 308.701 176.519 309.363C178.719 311.037 187.071 310.301 191.592 309.769C193.364 309.558 194.547 309.363 194.547 309.363C194.605 309.173 194.625 308.975 194.607 308.778C194.56 307.726 193.69 305.418 187.787 303.358C187.787 303.358 182.237 299.824 182.314 296.744H182.198H181.555C182.022 296.72 182.323 296.744 182.323 296.744C182.323 296.744 180.148 289.228 181.036 288.619C181.924 288.01 179.264 279.681 179.264 279.681C179.264 279.681 177.741 265.706 177.66 264.726C177.663 263.886 177.798 263.051 178.059 262.248L177.66 254.586C177.66 254.586 177.583 252.039 177.66 251.21C177.647 250.491 177.585 249.773 177.475 249.061C177.437 248.776 177.398 248.48 177.355 248.187C179.436 247.688 180.787 247.225 180.787 247.225L180.547 220.553C182.314 217.303 182.64 210.173 182.631 205.115C182.631 201.865 182.477 199.46 182.477 199.46L184.892 195.726C184.892 195.726 185.45 191.257 184.566 190.278C184.176 189.836 184.351 189.376 184.673 188.999C184.84 188.873 185.017 188.759 185.201 188.657C185.201 188.657 185.175 188.621 185.145 188.568C185.314 188.435 185.493 188.314 185.681 188.206C185.681 188.206 184.823 186.947 185.591 186.415C186.312 186.878 186.955 187.227 187.444 187.512C187.41 187.808 187.375 187.979 187.375 187.979L187.581 187.573C188.053 187.825 188.341 187.979 188.341 187.979C188.341 187.979 192.124 180.841 192.042 179.789C191.961 178.736 194.616 174.304 194.616 174.304C194.616 174.304 194.938 171.976 196.388 171.001C197.837 170.026 197.511 162.961 197.511 162.961C197.511 162.961 197.915 159.28 198.88 157.777C199.845 156.274 198 154.247 198 154.247ZM125.612 151.114L125.685 152.817C125.256 152.163 124.947 151.691 124.947 151.691L125.612 151.114Z" fill="url(#paint0_linear_147_8857)"/>
<path d="M188.546 184.895L187.619 188.633C187.619 188.633 180.199 185.046 178.86 180.487C177.522 175.929 181.099 174.198 181.099 174.198L188.014 176.973L188.546 184.895Z" fill="white"/>
<path opacity="0.1" d="M188.546 184.895L187.619 188.633C187.619 188.633 180.199 185.046 178.86 180.487C177.522 175.929 181.099 174.198 181.099 174.198L188.014 176.973L188.546 184.895Z" fill="black"/>
<path d="M146.902 312.101C146.902 312.101 140.039 314.49 135.321 314.791C132.816 314.949 131.499 313.495 130.821 312.093C130.451 311.314 130.212 310.484 130.113 309.635L130.727 303.196L131.053 299.767L141.077 297.301L142.497 301.412L142.63 301.725C143.2 303.098 145.487 308.684 145.418 309.85C145.415 310.149 145.476 310.445 145.597 310.721C145.718 310.996 145.896 311.246 146.121 311.455C146.352 311.701 146.614 311.918 146.902 312.101Z" fill="white"/>
<path d="M193.779 308.827C193.797 309.022 193.776 309.219 193.719 309.408C193.719 309.408 179.041 311.727 176.038 309.408C175.192 308.73 174.205 308.227 173.141 307.932C172.078 307.637 170.96 307.555 169.862 307.693C169.862 307.693 164.182 307.839 163.234 306.068C162.84 305.325 162.943 303.882 163.187 302.46C163.437 301.128 163.769 299.811 164.182 298.516L164.41 298.345L165.761 297.317L181.58 296.874H181.7C181.623 299.938 187.071 303.452 187.071 303.452C192.857 305.483 193.711 307.778 193.779 308.827Z" fill="white"/>
<path opacity="0.1" d="M193.779 308.827C193.794 309.022 193.772 309.219 193.715 309.408C193.715 309.408 179.041 311.727 176.038 309.408C175.192 308.73 174.206 308.228 173.143 307.933C172.08 307.638 170.964 307.556 169.866 307.693C169.866 307.693 164.182 307.839 163.238 306.068C162.844 305.321 162.942 303.882 163.187 302.46C165.375 302.668 168.828 303.184 170.183 304.415C172.233 306.287 175.708 308.156 177.84 308.303C179.508 308.404 189.49 308.705 193.779 308.827Z" fill="black"/>
<path opacity="0.1" d="M146.901 312.101C146.901 312.101 140.038 314.49 135.32 314.791C132.815 314.949 131.498 313.495 130.824 312.089C132.57 312.645 134.994 313.23 136.268 312.694C137.777 312.06 143.131 311.65 146.133 311.475C146.362 311.712 146.62 311.922 146.901 312.101Z" fill="black"/>
<path d="M157.085 119.592C151.423 117.508 144.139 110.622 145.958 107.404C146.362 106.592 146.602 105.716 146.666 104.82C146.783 103.605 146.8 102.382 146.717 101.164C146.59 99.1689 146.336 97.1828 145.958 95.2163C145.958 95.2163 163.635 95.5941 162.605 98.0602C162.305 98.7833 162.258 100.039 162.34 101.444C162.421 102.85 162.635 104.439 162.859 105.783C163.167 107.628 163.476 109.033 163.476 109.033C163.476 109.033 162.395 110.468 161.76 110.545C161.126 110.622 165.209 122.562 157.085 119.592Z" fill="#CF6F80"/>
<path opacity="0.1" d="M142.618 301.725L142.485 301.863C137.2 295.81 130.809 303.354 130.809 303.354L130.715 303.196L131.041 299.767L141.065 297.301L142.485 301.412L142.618 301.725Z" fill="black"/>
<path opacity="0.1" d="M181.706 297.301C181.706 297.301 177.845 297.224 175.786 298.946C173.727 300.669 163.776 299.32 164.205 298.946C164.332 298.761 164.409 298.549 164.428 298.329L165.779 297.301L181.599 296.858C181.659 297.13 181.706 297.301 181.706 297.301Z" fill="black"/>
<path d="M149.193 249.764C148.905 250.437 148.687 251.135 148.541 251.848C148.183 253.8 148.083 255.787 148.245 257.763C148.403 260.607 148.245 279.665 148.245 279.665C148.245 279.665 144.852 284.747 142.96 286.539C141.068 288.33 146.82 291.548 146.82 291.548C147.678 296.18 142.48 301.412 142.48 301.412C137.195 295.359 130.804 302.907 130.804 302.907C130.804 302.907 127.329 297.22 126.463 295.188C125.596 293.157 129.856 291.751 131.353 290.927C132.85 290.102 131.28 285.239 131.28 285.239C131.28 285.239 130.014 280.977 128.513 277.089C127.012 273.201 130.169 253.847 130.169 253.847C130.169 253.847 130.332 250.41 130.722 249.211C130.919 248.346 130.958 247.456 130.838 246.579C130.812 246.282 130.782 246.034 130.761 245.868C130.739 245.701 130.722 245.624 130.722 245.624L130.782 245.526L132.927 241.74C132.927 241.74 150.222 247.379 149.193 249.764Z" fill="#EFEEF7"/>
<path d="M181.705 296.854C181.705 296.854 177.845 296.777 175.786 298.479C173.727 300.181 163.775 298.853 164.204 298.479C164.633 298.105 164.599 295.339 164.599 295.339C158.761 287.79 163.741 284.727 163.741 284.727C163.741 284.727 161.133 272.844 160.661 268.436C160.331 265.356 159.924 257.081 159.705 252.356C159.61 250.324 159.555 248.927 159.555 248.927L164.325 248.017L164.938 247.899L176.442 245.713C176.442 245.713 176.76 247.745 176.974 249.406C177.081 250.116 177.141 250.831 177.154 251.547C177.077 252.36 177.154 254.903 177.154 254.903L177.545 262.529C177.29 263.329 177.158 264.159 177.154 264.995C177.231 265.966 178.728 279.868 178.728 279.868C178.728 279.868 181.332 288.164 180.444 288.761C179.556 289.358 181.705 296.854 181.705 296.854Z" fill="#EFEEF7"/>
<path opacity="0.1" d="M162.602 98.0602C162.302 98.7833 162.255 100.039 162.336 101.444C159.969 102.795 157.247 103.485 154.483 103.436C151.72 103.387 149.027 102.601 146.714 101.168C146.587 99.1716 146.333 97.1841 145.955 95.2163C145.955 95.2163 163.632 95.586 162.602 98.0602Z" fill="black"/>
<path d="M169.438 89.0819C169.442 90.5459 169.199 92.001 168.718 93.3924C167.643 96.5099 165.439 99.1673 162.496 100.895C159.553 102.622 156.06 103.309 152.634 102.833C149.208 102.357 146.07 100.749 143.775 98.2937C141.479 95.8384 140.174 92.6936 140.09 89.4151C140.09 89.3013 140.09 89.1957 140.09 89.0819C140.057 87.2365 140.412 85.4033 141.134 83.6892C141.857 81.9751 142.933 80.4144 144.299 79.0982C145.665 77.782 147.294 76.7366 149.091 76.023C150.888 75.3094 152.818 74.9419 154.766 74.9419C156.715 74.9419 158.644 75.3094 160.441 76.023C162.239 76.7366 163.868 77.782 165.234 79.0982C166.6 80.4144 167.676 81.9751 168.398 83.6892C169.121 85.4033 169.476 87.2365 169.443 89.0819H169.438Z" fill="#CF6F80"/>
<path opacity="0.1" d="M157.085 119.592C151.423 117.508 144.139 110.622 145.958 107.404C146.362 106.592 146.602 105.716 146.666 104.821L154.417 110.854L159.213 114.579L162.859 105.787C163.167 107.632 163.476 109.038 163.476 109.038C163.476 109.038 162.395 110.472 161.76 110.549C161.126 110.626 165.209 122.562 157.085 119.592Z" fill="black"/>
<path d="M177.129 146.255L170.656 249.243L162.214 249.768L140.355 190.051L143.941 119.153L144.696 104.174L154.416 111.735L159.216 115.46L162.969 106.413L169.948 112.174L177.129 146.255Z" fill="#EFEEF7"/>
<path opacity="0.1" d="M149.191 249.763C148.903 250.437 148.685 251.135 148.539 251.848C142.396 250.949 136.43 249.184 130.84 246.611L130.725 246.554L130.763 245.9L130.785 245.559L132.929 241.772C132.929 241.772 150.22 247.379 149.191 249.763Z" fill="black"/>
<path opacity="0.1" d="M164.424 251.864C162.853 252.117 161.27 252.288 159.679 252.376C159.585 250.345 159.529 248.947 159.529 248.947L164.299 248.037L164.424 251.864Z" fill="black"/>
<path opacity="0.1" d="M176.948 249.427C173.898 250.178 169.189 251.023 164.972 250.495L164.912 247.919L176.416 245.734C176.416 245.734 176.734 247.745 176.948 249.427Z" fill="black"/>
<path opacity="0.1" d="M164.894 250.966C147.307 253.81 131.201 245.656 131.201 245.656L131.355 242.894C131.355 242.894 131.754 211.575 130.647 209.174C129.541 206.773 128.678 194.597 129.305 192.728C129.931 190.859 127.018 162.835 127.018 162.835L126.547 151.46L109.277 144.834L116.998 129.59C118.041 127.453 118.938 125.255 119.684 123.009C121.026 119.052 127.259 115.164 127.259 115.164C127.259 115.164 133.65 111.28 136.176 111.426C138.703 111.573 142.014 107.989 142.014 107.989C144.459 102.086 146.673 104.76 146.673 104.76C146.673 105.04 146.673 104.76 146.553 105.633C145.695 112.113 160.425 132.589 160.635 132.95L162.037 165.313L163.457 206.269L164.894 250.966Z" fill="black"/>
<path d="M164.421 250.966C146.834 253.81 130.723 245.656 130.723 245.656L130.882 242.894C130.882 242.894 131.281 211.575 130.17 209.174C129.059 206.773 128.201 194.597 128.831 192.728C129.462 190.859 126.545 162.835 126.545 162.835L126.069 151.46L108.791 144.809L116.512 129.566C117.553 127.428 118.449 125.23 119.197 122.985C120.536 119.028 126.772 115.14 126.772 115.14C126.772 115.14 133.164 111.256 135.686 111.402C138.208 111.548 141.524 107.965 141.524 107.965C143.973 102.062 146.671 104.735 146.671 104.735C146.671 105.015 146.414 105.141 146.551 105.609C148.438 111.894 159.951 132.564 160.161 132.926L161.581 165.289L163.001 206.245L164.421 250.966Z" fill="white"/>
<path opacity="0.1" d="M159.682 133.848C157.79 133.101 147.77 122.266 147.77 122.266V119.8C147.405 118.987 145.239 119.483 143.48 120.052L144.235 105.073L145.093 105.747C146.972 112.028 159.463 133.487 159.682 133.848Z" fill="black"/>
<path d="M160.157 132.95C158.261 132.203 148.241 121.367 148.241 121.367V118.901C147.876 118.089 145.71 118.585 143.951 119.153L144.71 104.174L145.568 104.849C147.451 111.13 159.946 132.593 160.157 132.95Z" fill="white"/>
<path opacity="0.1" d="M131.199 186.988C131.435 186.988 143.429 185.793 143.429 185.793C143.429 185.793 150.691 199.318 150.215 202.609C149.738 205.9 148.876 208.812 145.955 208.296C143.034 207.781 130.234 208.703 130.234 208.703L131.199 186.988Z" fill="black"/>
<path d="M130.725 186.09C130.961 186.09 142.954 184.895 142.954 184.895C142.954 184.895 150.212 198.424 149.74 201.711C149.268 204.997 148.397 207.914 145.481 207.398C142.564 206.882 129.76 207.805 129.76 207.805L130.725 186.09Z" fill="white"/>
<path d="M139.762 179.74C139.762 179.74 150.768 185.342 151.004 187.053C151.24 188.763 145.402 186.305 144.141 186.009C143.311 185.819 142.466 185.694 141.615 185.635L133.203 185.85L139.762 179.74Z" fill="#CF6F80"/>
<path opacity="0.1" d="M156.611 134.547C157.251 134.547 157.769 134.056 157.769 133.45C157.769 132.844 157.251 132.353 156.611 132.353C155.972 132.353 155.453 132.844 155.453 133.45C155.453 134.056 155.972 134.547 156.611 134.547Z" fill="black"/>
<path d="M156.611 134.1C157.251 134.1 157.769 133.609 157.769 133.003C157.769 132.397 157.251 131.906 156.611 131.906C155.972 131.906 155.453 132.397 155.453 133.003C155.453 133.609 155.972 134.1 156.611 134.1Z" fill="#3F3D56"/>
<path opacity="0.1" d="M158.746 182.031C159.386 182.031 159.904 181.54 159.904 180.934C159.904 180.328 159.386 179.837 158.746 179.837C158.106 179.837 157.588 180.328 157.588 180.934C157.588 181.54 158.106 182.031 158.746 182.031Z" fill="black"/>
<path d="M158.746 181.581C159.386 181.581 159.904 181.089 159.904 180.484C159.904 179.878 159.386 179.387 158.746 179.387C158.106 179.387 157.588 179.878 157.588 180.484C157.588 181.089 158.106 181.581 158.746 181.581Z" fill="#3F3D56"/>
<path opacity="0.1" d="M157.766 158.289C158.405 158.289 158.924 157.798 158.924 157.192C158.924 156.586 158.405 156.095 157.766 156.095C157.126 156.095 156.607 156.586 156.607 157.192C156.607 157.798 157.126 158.289 157.766 158.289Z" fill="black"/>
<path d="M157.766 157.843C158.405 157.843 158.924 157.351 158.924 156.746C158.924 156.14 158.405 155.649 157.766 155.649C157.126 155.649 156.607 156.14 156.607 156.746C156.607 157.351 157.126 157.843 157.766 157.843Z" fill="#3F3D56"/>
<path d="M184.464 185.407C184.464 185.407 185.253 186.528 184.464 187.052C183.674 187.576 184.541 188.844 184.541 188.844C184.541 188.844 182.572 189.937 183.439 190.92C184.305 191.903 183.756 196.344 183.756 196.344L181.388 200.057C181.388 200.057 181.53 202.45 181.538 205.684C181.538 210.729 181.225 217.823 179.492 221.057L179.732 247.59C179.732 247.59 171.441 250.458 164.501 249.585L163.471 207.008C163.471 207.008 164.973 182.864 165.526 178.232C165.85 175.828 165.982 173.404 165.92 170.98C165.92 170.98 165.685 163.733 164.891 160.369C164.891 160.369 164.033 145.796 163.947 141.762C163.909 139.832 164.016 134.201 164.136 128.847C164.269 122.992 164.419 117.471 164.419 117.471L162.854 105.738C162.854 105.738 164.419 105.588 164.891 106.185C165.102 106.372 165.332 106.54 165.577 106.685C168.28 108.416 177.828 113.738 177.828 113.738C177.828 113.738 183.113 115.728 184.378 118.58C185.643 121.432 186.523 123.456 187.136 124.268C187.749 125.081 188.084 128.899 188.084 128.899C188.084 128.899 189.903 135.928 191.322 137.118C192.742 138.309 193.78 145.881 193.78 145.881L181.234 155.225C181.234 155.225 180.131 170.769 179.895 171.37C179.66 171.972 184.464 185.407 184.464 185.407Z" fill="white"/>
<path d="M184.939 185.407C184.939 185.407 185.724 186.528 184.939 187.053C184.154 187.577 185.012 188.844 185.012 188.844C185.012 188.844 183.056 189.949 183.913 190.932C184.771 191.916 184.231 196.356 184.231 196.356L181.863 200.069C181.863 200.069 182.005 202.462 182.018 205.696C182.018 210.742 181.704 217.835 179.971 221.069L180.207 247.602C180.207 247.602 171.903 250.471 164.971 249.597L163.946 207.02C163.946 207.02 165.447 182.876 166.001 178.245C166.325 175.84 166.455 173.416 166.391 170.993C166.391 170.993 166.155 163.745 165.366 160.381C165.366 160.381 164.508 145.808 164.418 141.774C164.379 139.845 164.491 134.214 164.607 128.859C164.74 123.005 164.89 117.484 164.89 117.484L162.822 105.592C162.822 105.592 164.89 105.592 165.366 106.198C165.575 106.387 165.805 106.554 166.052 106.697C168.755 108.428 178.307 113.75 178.307 113.75C178.307 113.75 183.587 115.741 184.853 118.593C186.118 121.445 186.998 123.468 187.615 124.28C188.233 125.093 188.559 128.912 188.559 128.912C188.559 128.912 190.378 135.94 191.797 137.131C193.217 138.321 194.242 145.878 194.242 145.878L181.696 155.222C181.696 155.222 180.593 170.765 180.353 171.367C180.113 171.968 184.939 185.407 184.939 185.407Z" fill="white"/>
<path opacity="0.1" d="M169.913 120.933L171.046 124.061L165.083 129.749C165.216 123.899 165.366 118.374 165.366 118.374L163.299 106.482C163.299 106.482 165.366 106.482 165.842 107.088C166.051 107.276 166.281 107.442 166.529 107.583L171.599 121.437L169.913 120.933Z" fill="black"/>
<path d="M169.437 120.035L170.573 123.163L164.611 128.851C164.744 122.997 164.894 117.476 164.894 117.476L162.822 105.584C162.822 105.584 164.894 105.584 165.366 106.19C165.576 106.378 165.806 106.545 166.052 106.689L171.127 120.539L169.437 120.035Z" fill="white"/>
<path opacity="0.1" d="M169.438 89.0819C169.442 90.5459 169.199 92.001 168.718 93.3924C168.637 93.4044 168.554 93.4008 168.474 93.382C168.395 93.3632 168.32 93.3294 168.254 93.2827C168.143 89.6263 166.243 86.1934 163.905 83.2723C163.249 82.3904 162.453 81.6094 161.546 80.9566C160.629 80.3042 159.488 79.9986 158.346 80.0994C157.059 80.266 155.922 81.0948 154.623 81.2004C152.907 81.3345 151.371 80.2091 149.668 80.1522C148.976 80.1585 148.293 80.3045 147.665 80.5805C147.037 80.8565 146.479 81.2562 146.027 81.7529C145.132 82.7553 144.467 83.923 144.075 85.1818C143.4 87.0906 143.033 89.0847 142.985 91.097C142.964 92.2345 142.848 93.6605 141.733 94.0749C141.817 93.2383 141.716 92.3943 141.438 91.5964C141.16 90.7985 140.709 90.064 140.116 89.4394L140.09 89.4151C140.09 89.3013 140.09 89.1957 140.09 89.0819C140.057 87.2365 140.412 85.4033 141.134 83.6892C141.857 81.9751 142.933 80.4144 144.299 79.0982C145.665 77.782 147.294 76.7366 149.091 76.023C150.888 75.3094 152.818 74.9419 154.766 74.9419C156.715 74.9419 158.644 75.3094 160.441 76.023C162.239 76.7366 163.868 77.782 165.234 79.0982C166.6 80.4144 167.676 81.9751 168.398 83.6892C169.121 85.4033 169.476 87.2365 169.443 89.0819H169.438Z" fill="black"/>
<path d="M160.839 67.0095C158.61 66.0165 156.075 65.8286 153.71 66.4814C152.522 66.8145 151.402 67.3548 150.197 67.627C147.623 68.2161 144.621 67.5783 142.411 69.0043C141.185 69.8168 140.447 71.1006 139.761 72.3478L138.045 75.4436C137.11 77.1377 136.166 78.8603 135.776 80.725C135.385 82.5898 135.621 84.678 136.87 86.1771C137.779 87.27 139.121 87.9565 140.108 88.9844C140.699 89.6096 141.147 90.3437 141.425 91.1406C141.702 91.9376 141.803 92.7803 141.721 93.6158C142.84 93.2096 142.948 91.7795 142.973 90.642C143.021 88.6296 143.388 86.6355 144.063 84.7267C144.454 83.4676 145.119 82.2997 146.015 81.2979C146.467 80.8016 147.026 80.4021 147.654 80.1261C148.281 79.8502 148.964 79.7039 149.656 79.6972C151.372 79.7541 152.912 80.8753 154.611 80.7413C155.897 80.6397 157.038 79.8069 158.334 79.6444C159.476 79.542 160.617 79.8478 161.534 80.5016C162.441 81.1533 163.235 81.9345 163.889 82.8173C166.231 85.7383 168.131 89.1632 168.242 92.8277C168.727 93.1649 169.426 92.7261 169.667 92.2061C169.907 91.6861 169.915 91.0767 170.22 90.581C170.572 90.0082 171.245 89.7035 171.773 89.2728C173.111 88.18 173.446 86.3396 173.394 84.6699C173.343 83.0001 172.999 81.306 173.334 79.6647C173.536 78.6571 173.99 77.7146 174.239 76.7193C174.488 75.7239 174.518 74.6067 173.93 73.7495C173.072 72.49 171.267 72.2422 169.692 72.1244C167.904 71.9781 166.304 72.165 165.163 70.739C164.627 69.9949 164.024 69.2962 163.361 68.6508C163.134 68.4396 160.839 67.0989 160.839 67.0095Z" fill="#512E4E"/>
<path opacity="0.1" d="M114.219 152.683L109.736 144.833L108.316 156.944C108.316 156.944 109.106 162.323 108.947 163.148C108.788 163.973 112.181 171.367 112.181 171.367C112.181 171.367 123.389 190.274 127.966 191.249L143.43 180.784L139.329 175.852C139.329 175.852 137.909 175.328 137.553 175.852C137.553 175.852 129.939 163.445 129.15 162.547C128.361 161.649 128.515 159.857 128.515 159.857C128.515 159.857 127.331 158.663 127.726 157.541C128.121 156.42 125.44 152.532 125.44 152.532L127.885 150.367L114.219 152.683Z" fill="black"/>
<path d="M109.973 143.94L108.789 144.833L107.369 156.944C107.369 156.944 108.158 162.323 108 163.148C107.841 163.973 111.238 171.367 111.238 171.367C111.238 171.367 122.442 190.274 127.019 191.249L142.487 180.784L138.382 175.852C138.382 175.852 136.962 175.328 136.606 175.852C136.606 175.852 128.992 163.445 128.203 162.547C127.414 161.649 127.572 159.857 127.572 159.857C127.572 159.857 126.389 158.663 126.783 157.541C127.178 156.42 124.493 152.532 124.493 152.532L126.938 150.367L109.973 143.94Z" fill="white"/>
<path opacity="0.1" d="M183.437 191.384C184.295 192.371 183.755 196.803 183.755 196.803L181.387 200.516C181.387 200.516 181.528 202.913 181.537 206.143L177.556 207.321C177.197 207.428 176.815 207.451 176.444 207.39C176.073 207.328 175.722 207.183 175.422 206.967C175.122 206.751 174.881 206.471 174.719 206.148C174.556 205.826 174.478 205.472 174.489 205.115L175.176 184.148L184.462 187.512C183.673 188.032 184.54 189.308 184.54 189.308C184.54 189.308 182.571 190.396 183.437 191.384Z" fill="black"/>
<path d="M183.912 190.932C184.77 191.92 184.23 196.356 184.23 196.356L181.862 200.069C181.862 200.069 182.003 202.462 182.016 205.696L177.963 206.895C177.61 206.998 177.237 207.021 176.874 206.96C176.51 206.9 176.167 206.758 175.874 206.546C175.58 206.335 175.344 206.06 175.185 205.745C175.026 205.429 174.949 205.083 174.96 204.733L175.651 183.701L184.942 187.065C184.148 187.585 185.014 188.856 185.014 188.856C185.014 188.856 183.054 189.949 183.912 190.932Z" fill="white"/>
<path d="M186.99 180.938C186.99 180.938 186.359 184.753 184.781 184.977C183.202 185.2 182.495 191.148 180.92 190.937C179.346 190.725 180.388 185.407 180.444 184.375C180.5 183.343 178.728 179.07 180.054 178.099C181.379 177.128 185.574 178.099 185.574 178.099L186.99 180.938Z" fill="#CF6F80"/>
<path opacity="0.1" d="M190.347 151.561L193.324 145.874C193.324 145.874 194.508 150.208 194.508 152.524C194.508 154.84 196.163 155.067 196.163 155.067C196.163 155.067 197.978 157.099 197.021 158.577C196.065 160.056 195.679 163.737 195.679 163.737C195.679 163.737 195.992 170.761 194.572 171.732C193.152 172.703 192.856 175.023 192.856 175.023C192.856 175.023 190.248 179.431 190.33 180.479C190.411 181.527 186.701 188.625 186.701 188.625C186.701 188.625 188.515 179.805 177.942 175.994C177.942 175.994 177.86 173 178.65 172.179C179.439 171.359 180.67 170.985 179.898 166.837C179.126 162.689 179.675 157.732 179.675 156.737C179.675 155.742 182.043 149.534 182.043 149.534L190.347 151.561Z" fill="black"/>
<path d="M191.635 145.061L194.235 145.874C194.235 145.874 195.423 150.208 195.423 152.524C195.423 154.84 197.079 155.067 197.079 155.067C197.079 155.067 198.893 157.099 197.937 158.577C196.98 160.056 196.598 163.737 196.598 163.737C196.598 163.737 196.911 170.761 195.492 171.732C194.072 172.703 193.754 175.023 193.754 175.023C193.754 175.023 191.151 179.431 191.232 180.479C191.314 181.527 187.599 188.625 187.599 188.625C187.599 188.625 189.418 179.805 178.84 175.994C178.84 175.994 178.763 173 179.552 172.179C180.341 171.359 181.572 170.985 180.8 166.837C180.028 162.689 180.577 157.732 180.577 156.737C180.577 155.742 182.945 149.534 182.945 149.534L191.635 145.061Z" fill="white"/>
<path opacity="0.1" d="M134.223 292.483C134.223 292.483 138.366 290.017 141.086 291.808C143.805 293.6 134.223 292.483 134.223 292.483Z" fill="black"/>
<path opacity="0.1" d="M166.416 284.857C166.416 284.857 170.083 284.41 173.163 287.55C176.243 290.691 166.416 284.857 166.416 284.857Z" fill="black"/>
<g opacity="0.1">
<path opacity="0.1" d="M171.782 88.3828C171.254 88.8134 170.576 89.1222 170.224 89.695C169.924 90.1866 169.916 90.7919 169.675 91.3201C169.435 91.8482 168.736 92.2788 168.251 91.9457C168.14 88.2893 166.235 84.8564 163.898 81.9313C163.244 81.0485 162.449 80.2673 161.543 79.6156C160.625 78.9618 159.482 78.6561 158.338 78.7583C157.052 78.9249 155.919 79.7537 154.619 79.8553C152.904 79.9934 151.364 78.868 149.661 78.8112C148.969 78.8177 148.286 78.9642 147.659 79.241C147.032 79.5178 146.474 79.9184 146.023 80.4159C145.128 81.4162 144.463 82.5828 144.072 83.8407C143.398 85.7496 143.03 87.7436 142.982 89.7559C142.956 90.8894 142.845 92.3032 141.738 92.7257C141.764 93.0259 141.764 93.3275 141.738 93.6276C142.854 93.2214 142.965 91.7913 142.991 90.6538C143.039 88.6414 143.406 86.6474 144.08 84.7386C144.472 83.4794 145.137 82.3115 146.032 81.3097C146.483 80.8135 147.041 80.4141 147.669 80.1381C148.296 79.8621 148.978 79.7158 149.669 79.709C151.385 79.7659 152.929 80.8872 154.628 80.7531C155.915 80.6515 157.056 79.8187 158.347 79.6562C159.491 79.554 160.633 79.8597 161.551 80.5134C162.458 81.1651 163.253 81.9464 163.906 82.8291C166.244 85.7502 168.148 89.175 168.26 92.8395C168.745 93.1767 169.444 92.7379 169.684 92.2179C169.924 91.6979 169.933 91.0885 170.233 90.5928C170.585 90.02 171.262 89.7153 171.79 89.2847C173.128 88.1918 173.463 86.3514 173.411 84.6817C173.411 84.6289 173.411 84.5761 173.411 84.5273C173.33 85.9736 172.923 87.4483 171.782 88.3828Z" fill="black"/>
<path opacity="0.1" d="M140.116 88.0947C139.129 87.0668 137.783 86.3802 136.877 85.2914C136.115 84.3276 135.68 83.1673 135.629 81.9641C135.494 83.4677 135.938 84.9668 136.877 86.1852C137.783 87.2781 139.129 87.9646 140.116 88.9925C141.063 89.9979 141.632 91.2723 141.733 92.6164C141.799 91.7984 141.689 90.9763 141.412 90.1993C141.134 89.4223 140.693 88.7065 140.116 88.0947Z" fill="black"/>
<path opacity="0.1" d="M174.248 75.8293C173.995 76.8247 173.545 77.7713 173.339 78.7747C173.217 79.4453 173.173 80.1264 173.206 80.8061C173.22 80.4189 173.265 80.0333 173.339 79.6523C173.545 78.6447 173.995 77.7022 174.248 76.7068C174.396 76.1578 174.444 75.5891 174.39 75.0249C174.363 75.2959 174.316 75.5648 174.248 75.8293Z" fill="black"/>
</g>
<path opacity="0.1" d="M56.933 309.001C80.0164 309.001 98.7293 306.155 98.7293 302.643C98.7293 299.132 80.0164 296.285 56.933 296.285C33.8495 296.285 15.1367 299.132 15.1367 302.643C15.1367 306.155 33.8495 309.001 56.933 309.001Z" fill="#EFEEF7"/>
<path d="M58.2793 180.845H55.5898V238.197H58.2793V180.845Z" fill="#535461"/>
<path d="M75.1793 238.023L75.012 240.607L74.7718 244.263L74.6731 245.783L74.4372 249.439L74.3343 250.958L74.094 254.615L71.3831 296.082C71.2653 297.866 70.4341 299.541 69.0587 300.765C67.6832 301.989 65.867 302.671 63.9795 302.672H49.8845C47.9975 302.671 46.1817 301.989 44.807 300.765C43.4323 299.541 42.602 297.866 42.4852 296.082L39.7871 254.586L39.5469 250.93L39.4483 249.41L39.208 245.754L39.1094 244.235L38.8692 240.578L38.6976 237.994C38.6678 237.497 38.7456 236.999 38.9262 236.532C39.1068 236.064 39.3865 235.636 39.748 235.274C40.1095 234.912 40.5452 234.624 41.0284 234.428C41.5117 234.231 42.0322 234.13 42.5581 234.131H71.3874C71.9113 234.135 72.4288 234.241 72.9078 234.442C73.3868 234.643 73.8173 234.935 74.1726 235.3C74.5279 235.664 74.8006 236.094 74.9737 236.563C75.1468 237.031 75.2168 237.528 75.1793 238.023Z" fill="#3F3D56"/>
<path d="M75.0154 240.606L74.7752 244.251H39.0957L38.8555 240.606H75.0154Z" fill="#9D9CB5"/>
<path d="M74.6736 245.77L74.4377 249.418H39.4316L39.1914 245.77H74.6736Z" fill="#9D9CB5"/>
<path d="M74.3357 250.942L74.0998 254.586H39.7715L39.5312 250.942H74.3357Z" fill="#9D9CB5"/>
<path d="M34.7487 202.34C50.4095 213.074 56.9466 229.861 56.9466 229.861C56.9466 229.861 38.073 229.247 22.408 218.514C6.74299 207.78 0.21875 190.998 0.21875 190.998C0.21875 190.998 19.0837 191.607 34.7487 202.34Z" fill="#EFEEF7"/>
<path d="M0.205078 190.998C0.205078 190.998 19.7992 201.296 26.0833 209.824C32.3673 218.351 56.9458 229.861 56.9458 229.861" stroke="#535461" stroke-width="0.991389" stroke-miterlimit="10"/>
<path d="M44.8588 180.719C53.3819 186.557 56.9464 195.694 56.9464 195.694C56.9464 195.694 46.6732 195.361 38.1458 189.523C29.6184 183.685 26.0625 174.544 26.0625 174.544C26.0625 174.544 36.3314 174.877 44.8588 180.719Z" fill="#EFEEF7"/>
<path d="M26.0625 174.544C26.0625 174.544 36.726 180.15 40.1447 184.79C43.5634 189.429 56.9464 195.694 56.9464 195.694" stroke="#535461" stroke-width="0.991389" stroke-miterlimit="10"/>
<path d="M69.3216 195.231C59.5288 205.424 57.457 218.745 57.457 218.745C57.457 218.745 71.2647 215.536 81.0489 205.339C90.8331 195.141 92.9135 181.824 92.9135 181.824C92.9135 181.824 79.1144 185.038 69.3216 195.231Z" fill="#EFEEF7"/>
<path d="M92.9221 181.828C92.9221 181.828 80.1653 192.277 76.9225 199.476C73.6797 206.675 57.457 218.745 57.457 218.745" stroke="#535461" stroke-width="0.991389" stroke-miterlimit="10"/>
<path d="M428.803 191.644C428.803 191.644 421.722 158.273 424.432 154.121C424.432 154.121 424.531 150.261 424.368 145.341C424.368 145.155 424.368 144.968 424.368 144.777C424.845 145.078 425.342 145.349 425.857 145.589C428.354 146.805 431.222 147.155 433.964 146.581L431.819 144.318C431.304 143.777 430.768 143.192 430.656 142.477C430.545 141.762 430.854 141.124 431.12 140.487C433.157 135.611 433.264 129.481 429.34 125.759C426.024 122.631 425.217 118.593 421.619 115.737C418.989 113.645 417.544 110.577 416.18 107.612C415.026 105.105 413.863 102.578 413.203 99.921C412.688 97.845 412.482 95.6959 411.774 93.6686C411.067 91.6413 409.741 89.6709 407.669 88.765C406.932 88.444 406.112 88.2612 405.439 87.8346C404.555 87.2699 404.023 86.3518 403.384 85.5474C400.137 81.4847 389.263 83.8776 384.116 85.527C382.717 85.9424 381.421 86.6224 380.307 87.5259L380.354 87.4527C380.393 87.3918 380.44 87.3309 380.483 87.2699C379.919 87.7014 379.433 88.2158 379.042 88.7934C378.291 89.9188 377.978 91.231 377.352 92.4498C376.597 93.892 372.397 97.9181 374.203 99.5391C374.33 99.648 374.475 99.7359 374.632 99.7991C375.31 100.066 376.056 100.137 376.777 100.002L376.7 100.177C376.083 101.607 375.767 103.138 375.769 104.682C375.769 111.357 381.581 116.769 388.757 116.769C390.106 116.77 391.448 116.574 392.734 116.188C392.764 116.342 392.789 116.497 392.819 116.651C392.819 116.712 392.841 116.773 392.849 116.834L392.622 117.134C392.611 117.116 392.598 117.098 392.583 117.082L385.849 125.995C384.82 126.682 378.892 130.744 378.557 133.791C378.205 137.127 377.853 141.031 377.853 141.031L377.806 141.868C377.512 142.101 377.168 142.27 376.798 142.365C376.427 142.46 376.04 142.477 375.662 142.416C373.56 142.091 373.56 149.729 373.56 149.729C373.56 149.729 372.161 150.948 371.201 149.892C370.24 148.835 367.7 152.415 367.7 152.415L351.787 153.065L351.422 153.085L350.564 150.57C350.472 150.305 350.273 150.085 350.01 149.958C349.747 149.831 349.442 149.807 349.161 149.892C349.095 149.912 349.03 149.938 348.968 149.969L348.908 150.001L348.797 150.074L348.741 150.123C348.71 150.15 348.682 150.178 348.655 150.209L348.604 150.265L348.578 150.29C348.479 150.419 348.413 150.569 348.387 150.727C348.36 150.885 348.372 151.047 348.424 151.2L349.161 153.357C346.09 153.942 342.95 155.592 345.511 160.134L332.531 157.863L336.731 161.202L358.409 165.439C358.122 165.927 358.311 166.634 359.207 167.629C363.068 171.923 370.102 173.089 372.933 173.39C373.681 174.974 374.615 176.473 375.717 177.859L375.473 182.137C375.473 182.137 368.305 214.744 366.993 216.397C367.655 215.686 368.262 214.93 368.807 214.134C366.727 220.834 363.818 230.003 363.055 231.376C361.828 233.57 360.691 242.447 362.09 243.016C362.519 243.19 363.746 243.105 365.496 242.979V243.715L365.418 271.58C365.418 271.58 365.77 288.672 364.805 290.301C363.84 291.93 363.583 295.347 363.583 295.347C363.583 295.347 359.722 302.087 356.664 304.797C356.643 304.818 356.62 304.837 356.595 304.853L356.501 304.22C356.501 304.22 352.825 308.615 344.692 308.368C344.692 308.368 339.798 311.382 347.055 311.545C354.313 311.707 363.583 311.301 363.583 311.301C363.583 311.301 370.055 301.957 375.477 303.176V310.257H377.137V303.062C377.907 302.582 378.566 301.959 379.074 301.23C379.582 300.502 379.928 299.683 380.093 298.824C380.235 297.939 380.131 297.034 379.791 296.198C379.451 295.362 378.886 294.625 378.154 294.059C377.825 293.777 377.561 293.434 377.378 293.051C377.196 292.668 377.099 292.253 377.094 291.833L377.034 291.881C377.034 291.739 376.996 291.593 376.978 291.443C376.502 287.786 375.906 280.242 378.012 274.66C380.899 267.006 381.774 256.345 379.672 249.999C378.994 247.971 378.437 245.908 378.004 243.82C377.952 243.556 377.905 243.304 377.862 243.069C379.299 243.253 380.722 243.524 382.121 243.881C386.99 245.153 397.641 245.388 406.734 245.319C406.756 245.555 406.781 245.803 406.811 246.051C406.974 247.773 407.313 249.477 407.824 251.137C408.965 254.387 409.488 268.716 409.488 268.716C409.488 268.716 410.959 280.498 410.157 285.292C409.728 287.957 409.299 290.634 409.055 293.324V293.376C409.055 293.376 406.644 299.877 404.881 303.407C404.838 303.496 404.791 303.586 404.748 303.671C404.278 303.712 403.816 303.809 403.371 303.96C403.371 303.96 401.008 308.429 398.653 309.168C396.298 309.907 397.079 312.341 402.411 311.447C407.742 310.553 415.794 309.822 415.794 309.822L416.141 305.264L417.78 303.322L417.351 307.868L419.096 307.543L418.865 302.014L421.546 298.837C421.546 298.837 424.784 296.107 419.971 290.736V290.853C419.92 290.776 419.873 290.695 419.817 290.618V290.593C419.019 289.423 418.384 287.242 419.547 283.37C421.649 276.374 422.871 270.024 422.871 270.024C422.871 270.024 427.564 253.014 421.923 244.966H422.172C421.594 243.833 421.185 242.63 420.958 241.391C420.929 241.244 420.904 241.094 420.881 240.94C425.054 240.712 429.151 239.997 432.492 238.453C432.479 238.437 430.468 198.071 428.803 191.644ZM375.816 163.489V163.571L374.958 163.611L375.816 163.489ZM372.873 163.875C372.732 163.905 372.6 163.965 372.487 164.05C372.119 164.544 371.887 165.118 371.814 165.72L370.476 165.435C370.476 165.435 369.536 165.244 368.185 165.029L367.546 164.42C369.305 164.282 371.132 164.078 372.873 163.875Z" fill="url(#paint1_linear_147_8857)"/>
<path d="M417.153 302.07L416.643 307.827L418.354 307.502L418.097 301.258L417.153 302.07Z" fill="#1D2366"/>
<path d="M378.107 274.737C376.044 280.303 376.627 287.815 377.09 291.463C377.262 292.812 377.421 293.632 377.421 293.632C377.421 293.632 374.337 300.287 374.079 300.539C373.822 300.791 365.003 305.889 365.003 305.889L358.839 309.298C358.839 309.298 352.585 306.702 355.583 305.808C356.196 305.575 356.748 305.219 357.2 304.764C360.203 302.062 363.973 295.347 363.973 295.347C363.973 295.347 364.231 291.938 365.174 290.317C366.118 288.696 365.775 271.662 365.775 271.662L365.848 243.893V240.273L377.579 240.355C377.653 241.584 377.823 242.806 378.086 244.011C378.507 246.092 379.052 248.148 379.72 250.17C381.787 256.504 380.929 267.111 378.107 274.737Z" fill="#FFB0B1"/>
<path opacity="0.1" d="M377.421 293.632C377.421 293.632 374.337 300.287 374.079 300.539C373.822 300.791 365.003 305.889 365.003 305.889L358.839 309.298C358.839 309.298 352.585 306.702 355.583 305.808C356.196 305.575 356.748 305.219 357.2 304.764L357.466 306.539L359.521 306.458L377.108 291.471C377.262 292.812 377.421 293.632 377.421 293.632Z" fill="black"/>
<path d="M377.204 291.849L359.518 306.937L357.464 307.019L357.035 304.175C357.035 304.175 353.44 308.554 345.453 308.311C345.453 308.311 340.658 311.313 347.765 311.475C354.873 311.638 363.949 311.232 363.949 311.232C363.949 311.232 370.289 301.887 375.595 303.106V310.163H377.225V303.041C377.983 302.558 378.63 301.935 379.126 301.209C379.623 300.482 379.96 299.669 380.116 298.816C380.257 297.938 380.157 297.04 379.826 296.209C379.495 295.378 378.943 294.642 378.224 294.071C377.903 293.786 377.647 293.442 377.472 293.06C377.296 292.677 377.205 292.265 377.204 291.849Z" fill="#1D2366"/>
<path d="M418.782 283.415C417.641 287.274 418.263 289.448 419.044 290.614V290.638C420.045 292.078 420.742 293.688 421.094 295.379L421.163 295.745L413.116 306.856L408.749 308.481C408.749 308.481 401.727 306.21 403.01 305.56C403.332 305.402 403.834 304.557 404.408 303.391C406.124 299.876 408.492 293.392 408.492 293.392V293.34C408.741 290.662 409.135 287.993 409.573 285.336C410.358 280.554 408.917 268.818 408.917 268.818C408.917 268.818 408.402 254.545 407.287 251.299C406.783 249.649 406.448 247.957 406.287 246.245C406.055 244.214 406.004 242.54 406.004 242.54C406.004 242.54 410.628 236.446 419.104 243.028C419.782 243.553 420.378 244.165 420.876 244.848C426.731 252.738 422.016 270.118 422.016 270.118C422.016 270.118 420.837 276.439 418.782 283.415Z" fill="#FFB0B1"/>
<path opacity="0.1" d="M421.177 295.745L413.13 306.856L408.763 308.481C408.763 308.481 401.741 306.21 403.024 305.56C403.345 305.402 403.847 304.557 404.422 303.391C407.395 303.366 408.935 306.048 408.935 306.048L412.701 305.479C412.701 305.479 417.668 296.232 418.783 295.668C419.898 295.103 418.955 291.446 418.955 291.446V290.516C418.985 290.549 419.01 290.585 419.045 290.618V290.642C420.046 292.082 420.742 293.692 421.095 295.383L421.177 295.745Z" fill="black"/>
<path d="M409.192 306.287C409.192 306.287 407.047 302.558 402.938 303.935C402.938 303.935 400.626 308.404 398.314 309.127C396.002 309.85 396.774 312.288 401.998 311.398C407.223 310.508 415.098 309.773 415.098 309.773L415.441 305.227L420.752 298.82C420.752 298.82 423.917 296.102 419.208 290.752V291.682C419.208 291.682 420.151 295.338 419.036 295.903C417.921 296.468 412.971 305.719 412.971 305.719L409.192 306.287Z" fill="#1D2366"/>
<path opacity="0.1" d="M377.59 240.347C377.664 241.576 377.833 242.798 378.096 244.003C373.266 243.333 368.784 243.666 365.846 243.885V240.265L377.59 240.347Z" fill="black"/>
<path opacity="0.1" d="M421.352 245.86C421.352 245.86 414.489 246.176 406.305 246.241C406.073 244.21 406.021 242.536 406.021 242.536C406.021 242.536 410.645 236.442 419.121 243.024C419.799 243.549 420.396 244.161 420.893 244.844C421.026 245.19 421.179 245.529 421.352 245.86Z" fill="black"/>
<path d="M421.351 245.128C421.351 245.128 391.291 246.505 382.129 244.072C372.966 241.638 363.886 243.747 362.517 243.182C361.149 242.618 362.26 233.773 363.461 231.583C364.662 229.394 371.251 207.248 371.251 207.248L377.59 175.941L384.269 174.198L384.741 174.072L396.378 171.034L404.905 168.803C404.905 168.803 421.862 231.502 420.407 236.125C419.879 237.896 419.794 239.758 420.159 241.565C420.381 242.799 420.782 243.998 421.351 245.128Z" fill="#1D2366"/>
<path d="M355.492 154.531C355.492 154.531 349.487 160.625 354.033 164.021C358.58 167.418 361.57 164.346 361.57 164.346L355.492 154.531Z" fill="#C7DAF5"/>
<path opacity="0.1" d="M355.492 154.531C355.492 154.531 349.487 160.625 354.033 164.021C358.58 167.418 361.57 164.346 361.57 164.346L355.492 154.531Z" fill="black"/>
<path d="M404.009 114.465C404.009 114.465 403.306 115.099 402.246 116.033C400.736 117.37 398.501 119.324 396.52 120.961C393.774 123.224 391.51 124.886 392.32 123.468C393.131 122.05 392.977 119.58 392.573 117.268C392.543 117.114 392.518 116.96 392.488 116.809C392.154 115.112 391.711 113.435 391.162 111.788C391.162 111.788 395.597 106.36 398.051 104.219C398.965 103.407 399.604 103.074 399.642 103.638C399.685 104.398 400.286 106.076 401.032 107.855C401.054 107.912 401.075 107.965 401.101 108.022C401.598 109.241 402.16 110.492 402.654 111.573C403.409 113.23 404.009 114.465 404.009 114.465Z" fill="#FFB0B1"/>
<path opacity="0.1" d="M401.101 108.022C400.684 110.145 399.673 112.123 398.173 113.75C396.673 115.376 394.739 116.592 392.573 117.268C392.232 115.414 391.761 113.583 391.162 111.788C391.162 111.788 399.514 101.57 399.642 103.638C399.672 104.422 400.324 106.161 401.101 108.022Z" fill="black"/>
<path opacity="0.1" d="M391.741 119.999L392.822 118.556C392.822 118.556 393.539 122.692 396.172 120.868C398.806 119.044 398.935 134.596 398.935 134.596L396.108 174.625L375.682 173.467L376.261 154.125L378.573 144.375L384.291 130.2L387.692 125.516L391.741 119.999Z" fill="black"/>
<path d="M398.935 134.843L396.362 171.038L396.092 174.873L384.703 174.227L384.274 174.202L375.695 173.715L376.274 154.368L378.586 144.618L384.304 130.443L387.706 125.759L391.755 120.222L392.836 118.784C392.836 118.784 393.552 122.919 396.186 121.095L396.242 121.059C398.815 119.515 398.935 134.843 398.935 134.843Z" fill="#1D2366"/>
<path d="M378.874 141.23C378.874 141.23 377.849 143.261 375.79 142.932C373.731 142.603 373.736 150.245 373.736 150.245C373.736 150.245 372.367 151.464 371.424 150.408C370.48 149.351 367.992 152.922 367.992 152.922L352.404 153.572C352.404 153.572 359.34 156.575 357.981 165.659C357.981 165.659 381.53 164.277 382.302 162.169C383.074 160.06 378.874 141.23 378.874 141.23Z" fill="white"/>
<path opacity="0.03" d="M378.874 141.23C378.874 141.23 377.849 143.261 375.79 142.932C373.731 142.603 373.736 150.245 373.736 150.245C373.736 150.245 372.367 151.464 371.424 150.408C370.48 149.351 367.992 152.922 367.992 152.922L352.404 153.572C352.404 153.572 359.34 156.575 357.981 165.659C357.981 165.659 381.53 164.277 382.302 162.169C383.074 160.06 378.874 141.23 378.874 141.23Z" fill="black"/>
<path d="M333.572 158.346L337.682 161.669L371.508 168.401L367.313 164.346L333.572 158.346Z" fill="white"/>
<path d="M391.807 121.278C391.245 122.091 389.636 126.251 388.294 129.883C387.174 132.909 386.239 135.57 386.239 135.57C386.239 135.57 384.056 149.034 382.94 151.468C381.825 153.901 382.43 163.392 382.43 163.392L378.274 186.829C378.274 186.829 376.391 198.915 373.482 206.135C370.613 213.24 367.417 216.572 367.318 216.677C368.605 215.028 375.618 182.551 375.618 182.551L377.935 141.591C377.935 141.591 378.274 137.699 378.617 134.372C378.96 131.045 385.909 126.503 385.909 126.503L392.609 117.479C393.282 118.333 392.832 119.82 391.807 121.278Z" fill="white"/>
<path d="M374.334 173.918C374.334 173.918 364.469 173.512 359.69 168.076C354.912 162.64 370.735 165.906 370.735 165.906L374.849 166.8L374.334 173.918Z" fill="#FFB0B1"/>
<path opacity="0.1" d="M420.408 236.13C419.88 237.9 419.795 239.762 420.159 241.569C409.397 242.293 397.884 239.538 397.884 239.538C395.739 241.407 390.09 244.161 390.09 244.161L387.01 208.004C385.042 203.129 384.27 177.587 384.27 177.587C384.27 177.587 384.445 176.25 384.698 174.247C384.698 174.198 384.698 174.146 384.72 174.097C385.488 168.503 387.01 158.001 387.757 156.583C388.786 154.633 384.591 149.445 384.591 149.445L386.5 134.027L386.732 132.166C390.755 130.464 393.839 125.028 393.839 125.028L396.207 121.1C398.781 119.535 398.914 134.864 398.914 134.864L396.34 171.058L404.867 168.828C404.867 168.828 421.862 231.506 420.408 236.13Z" fill="black"/>
<path d="M431.454 238.628C419.723 244.145 398.4 239.034 398.4 239.034C396.255 240.903 390.606 243.658 390.606 243.658L387.522 207.5C385.557 202.625 384.785 177.083 384.785 177.083C384.785 177.083 387.264 158.025 388.294 156.079C388.594 155.51 388.448 154.665 388.092 153.755C386.342 149.424 385.698 144.761 386.214 140.149L387.037 133.523L387.264 131.666C391.292 129.96 394.376 124.524 394.376 124.524L396.521 120.965L400.467 114.408L402.338 111.304L402.655 111.577L405.078 113.657C405.078 113.657 406.108 114.469 407.652 115.688C411.011 118.369 416.814 123.09 419.808 125.979C422.442 128.522 423.274 138.415 423.514 145.861C423.673 150.765 423.579 154.608 423.579 154.608C420.924 158.748 427.868 191.985 427.868 191.985C429.485 198.408 431.454 238.628 431.454 238.628Z" fill="white"/>
<path opacity="0.03" d="M408.935 124.443C408.935 124.443 400.883 138.959 401.818 144.476C402.754 149.993 405.413 156.237 404.131 157.696C403.69 158.249 403.12 158.697 402.466 159.006C401.812 159.316 401.091 159.478 400.36 159.479C399.073 159.561 395.642 161.832 395.642 162.075C395.642 162.319 392.472 162.319 389.636 163.457C386.801 164.594 382.615 165.24 382.615 165.24C382.615 165.24 374.465 164.997 373.706 165.728C372.946 166.459 372.166 170.835 373.791 174.324C375.417 177.814 377.223 180.418 378.587 180.894C379.951 181.369 388.607 178.623 395.629 177.973C402.651 177.323 410.273 172.053 410.273 172.053C410.273 172.053 418.667 169.209 420.139 164.428C421.61 159.646 418.341 133.365 418.341 133.365C418.341 133.365 415.871 121.116 408.935 124.443Z" fill="black"/>
<path opacity="0.03" d="M407.905 123.224C407.905 123.224 399.853 137.744 400.797 143.257C401.741 148.77 404.392 155.019 403.105 156.481C402.666 157.034 402.097 157.483 401.443 157.793C400.79 158.102 400.069 158.264 399.339 158.265C398.052 158.346 394.62 160.617 394.62 160.861C394.62 161.104 391.45 161.104 388.615 162.238C385.78 163.371 381.593 164.021 381.593 164.021C381.593 164.021 373.443 163.778 372.688 164.509C371.933 165.24 371.144 169.62 372.774 173.105C374.404 176.591 376.206 179.199 377.57 179.675C378.934 180.15 387.59 177.404 394.612 176.758C401.634 176.112 409.256 170.834 409.256 170.834C409.256 170.834 417.646 167.991 419.1 163.213C420.554 158.435 417.303 132.146 417.303 132.146C417.303 132.146 414.841 119.901 407.905 123.224Z" fill="black"/>
<path d="M408.68 123.712C408.68 123.712 400.629 138.232 401.572 143.745C402.516 149.258 405.167 155.506 403.884 156.964C403.445 157.519 402.876 157.969 402.222 158.279C401.567 158.59 400.846 158.751 400.114 158.752C398.827 158.833 395.396 161.104 395.396 161.344C395.396 161.584 392.23 161.588 389.39 162.725C386.551 163.863 382.369 164.509 382.369 164.509C382.369 164.509 374.219 164.265 373.459 164.996C372.7 165.728 371.92 170.107 373.545 173.593C375.171 177.079 376.977 179.687 378.341 180.162C379.705 180.638 388.361 177.891 395.383 177.241C402.405 176.591 410.027 171.322 410.027 171.322C410.027 171.322 418.421 168.478 419.893 163.696C421.364 158.915 418.117 132.633 418.117 132.633C418.117 132.633 415.612 120.405 408.68 123.712Z" fill="white"/>
<path opacity="0.1" d="M408.506 162.656C408.506 162.656 402.072 161.438 404.311 163.469C406.55 165.5 406.537 167.28 409.278 167.198C412.019 167.117 408.506 162.656 408.506 162.656Z" fill="black"/>
<path opacity="0.1" d="M419.377 206.362C419.377 206.362 416.469 208.227 422.032 212.525C427.596 216.824 419.377 206.362 419.377 206.362Z" fill="black"/>
<path opacity="0.1" d="M413.828 221.691C413.828 221.935 412.799 230.629 416.65 232.802C420.502 234.976 413.828 221.691 413.828 221.691Z" fill="black"/>
<path d="M352.67 153.552C349.565 153.654 342.856 154.552 346.335 160.698C349.41 166.138 354.579 162.502 357.487 159.744C356.778 157.172 355.054 154.956 352.67 153.552Z" fill="#FFB0B1"/>
<path d="M357.525 159.695L357.654 159.569L357.525 159.695Z" fill="#FFB0B1"/>
<path opacity="0.1" d="M407.652 115.936C404.358 118.069 401.595 119.869 401.055 120.242C399.579 121.278 396.766 127.36 394.951 130.464C393.506 132.962 388.809 133.604 387.037 133.763L387.264 131.906C391.292 130.2 394.376 124.764 394.376 124.764L402.338 111.544L405.078 113.905C405.078 113.905 406.108 114.717 407.652 115.936Z" fill="black"/>
<path d="M407.652 115.692C404.358 117.825 401.595 119.625 401.055 120.003C399.579 121.035 396.766 127.116 394.951 130.22C393.506 132.719 388.809 133.361 387.037 133.519L387.264 131.663C391.292 129.956 394.376 124.52 394.376 124.52L402.338 111.301L405.078 113.653C405.078 113.653 406.108 114.457 407.652 115.692Z" fill="#DCE7FF"/>
<path d="M401.31 105.34C401.312 107.779 400.531 110.161 399.071 112.17C397.347 114.545 394.781 116.256 391.838 116.992C388.896 117.729 385.772 117.442 383.034 116.184C380.296 114.926 378.125 112.779 376.915 110.135C375.704 107.49 375.535 104.522 376.438 101.769C377.34 99.0163 379.255 96.6611 381.834 95.1309C384.413 93.6007 387.486 92.9968 390.495 93.4289C393.504 93.8609 396.249 95.3003 398.234 97.4857C400.218 99.6712 401.31 102.458 401.31 105.34Z" fill="#FFB0B1"/>
<path opacity="0.1" d="M423.514 145.865C421.772 144.851 420.353 143.407 419.409 141.689C418.693 140.348 418.216 138.801 416.994 137.85C415.892 136.997 414.42 136.79 413.048 136.408C408.535 135.144 404.752 131.244 404.61 126.791C404.542 124.695 405.232 122.603 404.919 120.527C404.741 119.352 404.248 118.24 403.487 117.297C403.108 116.846 402.694 116.424 402.247 116.033C401.646 115.497 401.016 114.977 400.467 114.408C400.121 114.056 399.819 113.668 399.566 113.251C399.362 112.909 399.197 112.548 399.073 112.174C398.215 109.688 398.995 106.738 398.052 104.223L398 104.085C397.644 103.191 396.919 102.298 395.911 102.229C394.903 102.159 394.041 102.952 393.08 103.305C391.069 104.045 388.898 102.785 387.221 101.501C385.544 100.218 383.652 98.7509 381.52 99.0353C380.109 99.2262 378.994 100.136 377.694 100.608C377.401 100.715 377.098 100.798 376.789 100.855C377.889 98.2573 379.91 96.1032 382.504 94.7631C385.099 93.4229 388.105 92.9804 391.007 93.5116C393.909 94.0428 396.525 95.5145 398.405 97.6739C400.285 99.8333 401.313 102.545 401.312 105.345C401.313 106.19 401.22 107.033 401.033 107.859C401.054 107.916 401.076 107.969 401.102 108.026C401.599 109.245 402.161 110.496 402.654 111.577L405.078 113.657C405.078 113.657 406.107 114.469 407.652 115.688C411.01 118.369 416.814 123.09 419.808 125.979C422.441 128.53 423.265 138.419 423.514 145.865Z" fill="black"/>
<path d="M377.542 93.185C378.156 92.0027 378.46 90.6783 379.194 89.557C380.27 87.932 382.149 86.8919 384.079 86.2622C389.119 84.6168 399.77 82.228 402.953 86.2622C403.579 87.0747 404.098 87.9766 404.965 88.5373C405.625 88.9639 406.423 89.1467 407.148 89.4676C409.177 90.3695 410.472 92.3359 411.163 94.3428C411.853 96.3498 412.059 98.503 412.565 100.571C413.213 103.224 414.35 105.739 415.482 108.237C416.816 111.187 418.232 114.246 420.805 116.33C424.318 119.174 425.095 123.2 428.355 126.32C432.215 130.025 432.091 136.139 430.101 140.994C429.839 141.632 429.543 142.298 429.646 142.977C429.749 143.655 430.281 144.273 430.783 144.813L432.893 147.068C427.9 148.21 422.251 145.739 419.926 141.405C419.21 140.064 418.734 138.52 417.507 137.565C416.409 136.712 414.933 136.509 413.565 136.127C409.052 134.86 405.269 130.955 405.128 126.503C405.059 124.411 405.75 122.318 405.436 120.246C405.262 119.063 404.767 117.944 403.999 116.996C402.82 115.538 401.04 114.559 400.079 112.934C398.453 110.216 399.689 106.685 398.518 103.768C398.157 102.874 397.437 101.981 396.429 101.912C395.421 101.842 394.558 102.635 393.593 102.988C391.586 103.728 389.415 102.472 387.738 101.184C386.061 99.8965 384.169 98.4339 382.033 98.7224C380.622 98.9092 379.511 99.8193 378.211 100.295C377.25 100.644 375.303 100.957 374.462 100.189C372.687 98.6411 376.8 94.6313 377.542 93.185Z" fill="#591D4B"/>
<path opacity="0.1" d="M421.117 140.064C420.397 138.724 419.925 137.18 418.698 136.229C417.6 135.376 416.124 135.169 414.752 134.787C410.244 133.523 406.46 129.619 406.314 125.167C406.246 123.074 406.936 120.978 406.628 118.906C406.448 117.731 405.953 116.619 405.191 115.676C404.007 114.218 402.227 113.239 401.27 111.613C399.644 108.9 400.88 105.369 399.704 102.448C399.348 101.558 398.623 100.665 397.62 100.592C396.616 100.518 395.745 101.319 394.784 101.672C392.777 102.412 390.602 101.152 388.929 99.8684C387.256 98.5846 385.356 97.118 383.224 97.4024C381.813 97.5933 380.698 98.5033 379.403 98.9746C378.442 99.324 376.49 99.6409 375.649 98.873C373.882 97.248 377.996 93.2463 378.733 91.8081C379.347 90.6218 379.651 89.3014 380.389 88.1801C380.428 88.1192 380.471 88.0583 380.513 87.9973C379.962 88.4303 379.485 88.9431 379.102 89.5167C378.369 90.638 378.064 91.9543 377.451 93.1447C376.709 94.5829 372.595 98.5968 374.367 100.21C375.225 100.982 377.155 100.665 378.116 100.315C379.403 99.8399 380.526 98.9299 381.938 98.743C384.082 98.4546 385.97 99.9212 387.643 101.205C389.315 102.489 391.503 103.748 393.502 103.009C394.463 102.655 395.303 101.859 396.333 101.932C397.362 102.005 398.049 102.895 398.422 103.789C399.593 106.706 398.358 110.236 399.983 112.954C400.944 114.551 402.724 115.55 403.904 117.017C404.671 117.964 405.166 119.084 405.341 120.267C405.654 122.339 404.963 124.431 405.032 126.523C405.173 130.992 408.957 134.88 413.469 136.148C414.829 136.53 416.313 136.733 417.411 137.586C418.642 138.541 419.127 140.085 419.83 141.425C422.155 145.76 427.805 148.23 432.797 147.089L431.802 146.024C427.474 146.085 423.095 143.753 421.117 140.064Z" fill="#090808"/>
<path opacity="0.1" d="M391.548 121.522C390.986 122.334 389.377 126.495 388.034 130.127C386.778 129.663 385.637 126.71 385.637 126.71L392.337 117.683C393.023 118.576 392.573 120.059 391.548 121.522Z" fill="black"/>
<path d="M391.807 121.278C391.245 122.091 389.637 126.251 388.294 129.883C387.037 129.424 385.896 126.466 385.896 126.466L392.597 117.443C393.283 118.333 392.833 119.82 391.807 121.278Z" fill="#DCE7FF"/>
<path d="M352.849 162.782L349.134 151.687C349.09 151.557 349.074 151.421 349.086 151.285C349.098 151.149 349.138 151.016 349.204 150.895C349.27 150.774 349.361 150.666 349.471 150.579C349.582 150.491 349.709 150.424 349.846 150.383C350.123 150.301 350.422 150.326 350.679 150.453C350.936 150.579 351.13 150.796 351.219 151.058L354.934 162.14L354.565 164.46L352.849 162.782Z" fill="#BE8B87"/>
<path opacity="0.1" d="M349.487 150.712C349.764 150.629 350.065 150.654 350.323 150.78C350.581 150.906 350.775 151.124 350.864 151.387L354.579 162.469L354.3 164.208L354.57 164.476L354.939 162.157L351.203 151.074C351.114 150.813 350.92 150.595 350.663 150.469C350.406 150.343 350.107 150.318 349.83 150.399C349.598 150.471 349.397 150.614 349.26 150.806C349.333 150.769 349.409 150.737 349.487 150.712Z" fill="white"/>
<path d="M352.848 162.782L354.932 162.156L354.628 164.058L354.563 164.476L353.954 163.875L352.848 162.782Z" fill="#EFC8C4"/>
<path d="M353.955 163.875C353.991 163.832 354.037 163.796 354.088 163.77C354.118 163.752 354.153 163.742 354.189 163.742C354.225 163.742 354.26 163.752 354.29 163.77C354.319 163.803 354.343 163.84 354.363 163.879C354.391 163.924 354.43 163.962 354.476 163.991C354.522 164.02 354.574 164.039 354.629 164.046L354.564 164.452L353.955 163.875Z" fill="#727A9C"/>
<path d="M349.113 155.628C349.113 155.628 356.564 155.587 354.81 158.59C353.055 161.592 350.314 161.953 350.314 161.953L349.113 155.628Z" fill="#FFB0B1"/>
<path d="M302.774 20.8901H302.452C289.652 20.8901 278.333 27.3051 271.821 36.771C265.31 27.3051 253.99 20.8901 241.19 20.8901H240.869C231.263 20.9768 222.081 24.6505 215.319 31.1129C208.557 37.5752 204.761 46.304 204.756 55.4024C204.756 66.7006 209.98 82.7318 220.168 95.9232C239.578 121.059 271.821 143.05 271.821 143.05C271.821 143.05 304.065 121.063 323.47 95.9232C333.662 82.7318 338.882 66.7006 338.882 55.4024C338.877 46.3047 335.082 37.5765 328.32 31.1143C321.559 24.6521 312.379 20.9779 302.774 20.8901ZM298.171 97.8571C296.714 97.8518 295.292 97.4292 294.092 96.6447C292.892 95.8602 291.971 94.7505 291.45 93.4613H283.797C283.293 93.4583 282.803 93.3064 282.395 93.0267C281.986 92.747 281.68 92.3535 281.52 91.9012L279.169 85.1938L271.731 109.809C271.586 110.283 271.283 110.7 270.867 110.997C270.451 111.293 269.944 111.454 269.423 111.455H269.273C268.73 111.43 268.212 111.229 267.806 110.886C267.4 110.543 267.131 110.078 267.043 109.57L259.378 65.9043L253.776 91.7428C253.647 92.2336 253.349 92.6696 252.928 92.9811C252.508 93.2925 251.989 93.4616 251.455 93.4613H240.676C240.352 93.4742 240.03 93.4251 239.727 93.317C239.425 93.2088 239.148 93.0437 238.915 92.8317C238.681 92.6198 238.496 92.3653 238.369 92.0835C238.242 91.8018 238.176 91.4986 238.176 91.1923C238.176 90.886 238.242 90.5828 238.369 90.3011C238.496 90.0193 238.681 89.7648 238.915 89.5528C239.148 89.3409 239.425 89.1758 239.727 89.0676C240.03 88.9594 240.352 88.9104 240.676 88.9233H249.568L257.503 54.1836C257.633 53.6699 257.948 53.2151 258.393 52.8969C258.838 52.5786 259.386 52.4167 259.943 52.4388C260.501 52.4608 261.032 52.6655 261.448 53.0179C261.864 53.3702 262.137 53.8483 262.221 54.3704L270.05 98.9134L276.715 76.8897C276.854 76.4259 277.148 76.017 277.552 75.7241C277.956 75.4312 278.45 75.2701 278.959 75.2647H279.006C279.51 75.2648 280.001 75.4157 280.41 75.6959C280.818 75.976 281.122 76.3711 281.279 76.8247L285.53 88.9355H291.355C291.769 87.7438 292.523 86.6836 293.533 85.872C294.544 85.0603 295.771 84.5288 297.08 84.3361C298.389 84.1434 299.728 84.297 300.951 84.7799C302.174 85.2627 303.232 86.0562 304.008 87.0726C304.785 88.089 305.25 89.2889 305.352 90.5398C305.454 91.7907 305.189 93.0439 304.586 94.1613C303.984 95.2786 303.067 96.2166 301.937 96.8716C300.808 97.5266 299.509 97.8733 298.184 97.8733L298.171 97.8571Z" fill="#EFEEF7"/>
</g>
<defs>
<linearGradient id="paint0_linear_147_8857" x1="152.846" y1="314.803" x2="152.846" y2="64.8115" gradientUnits="userSpaceOnUse">
<stop stop-color="#808080" stop-opacity="0.25"/>
<stop offset="0.54" stop-color="#808080" stop-opacity="0.12"/>
<stop offset="1" stop-color="#808080" stop-opacity="0.1"/>
</linearGradient>
<linearGradient id="paint1_linear_147_8857" x1="95746.9" y1="188622" x2="95746.9" y2="60299.1" gradientUnits="userSpaceOnUse">
<stop stop-color="#808080" stop-opacity="0.25"/>
<stop offset="0.54" stop-color="#808080" stop-opacity="0.12"/>
<stop offset="1" stop-color="#808080" stop-opacity="0.1"/>
</linearGradient>
<clipPath id="clip0_147_8857">
<rect width="474" height="318" fill="white"/>
</clipPath>
</defs>
</svg>
